<svg xmlns="http://www.w3.org/2000/svg" width="12332.09" height="12942.949" viewBox="0 0 12332.09 12942.949">
  <g id="_1" data-name="1" transform="translate(10939.676 -2308)">
    <path id="Path_895" data-name="Path 895" d="M2576,49868s-282-1497,1099-2995c0,0-85,777,361,1421,0,0,171-2102,1466-2950s2143-1734,2394-2731c0,0,447,604,408,1601,0,0,298-793,694-1193,0,0-11,2270,1652,3242,0,0-134-531,86-996,0,0,556,1254,1384,2337s766,2276,609,2605l628-471s636,1519-812,3204c0,0,412-99,670-388,0,0-301,1751-1900,2332s-2940,204-4270,63c-1331-141-2164,544-3434-164-1270-707-1388-2601-2447-2772,0,0,369-315,1099,0,0,0-698-1398-330-2848,0,0,196,512,643,704Z" transform="translate(-12103.676 -40305)" fill="#f47d35"/>
    <path id="Path_896" data-name="Path 896" d="M5502,45345c-1295,847-1466,2950-1466,2950-447-644-361-1421-361-1421-1381,1498-1099,2995-1099,2995-447-192-643-704-643-704-369,1450,330,2848,330,2848-730-315-1099,0-1099,0,1059,172,1177,2065,2447,2772,1091,608,1860,188,2899,147l175-581s-1734,758-2809,184c-1075-573-1546-2258-1546-2258,186-82,413,0,413,0-547-1001-537-2235-537-2235,338,554,867,419,867,419-371-1290,419-2497,419-2497,203,615,824,578,824,578,15-877,666-2322,2201-3467s1380-2461,1380-2461c-251,997-1099,1883-2394,2731Z" transform="translate(-12103.676 -40305)" fill="#f05936"/>
    <path id="Path_897" data-name="Path 897" d="M4603,48773s21-1360,1090-2478c1068-1118,2046-1595,2208-2590,0,0,285,472,273,991,0,0,320-524,661-800,0,0,374,2182,2058,2887,0,0-3-343,0-600,0,0,538,1165,1228,2153s268,2287,268,2287,518-129,756-362c0,0-297,2041-1161,2845,0,0,363,80,706,61,0,0-920,1942-3632,1669-2711-273-3240-630-3240-630s-1509,348-2260-324-808-1439-808-1439,312-98,476,9c0,0-615-1282-657-1715,0,0,608-20,797-167,0,0-58-1285,125-1900,0,0,669,324,1112,104Z" transform="translate(-12103.676 -40305)" fill="#f69244"/>
    <path id="Path_898" data-name="Path 898" d="M7476,45001s389,602,236,1122c0,0,606-434,886-868,0,0,209,398,371,1122s1284,2180,1790,2406c0,0,484-452,414-1085,0,0,606,959,111,2635,0,0,409-202,580-465,0,0,145,1284-1141,3237,0,0,599,127,1141-108,0,0,333,1359-3366,1702s-5551-1774-5551-1774,912-16,1373-370c0,0-1197-1656-481-3370,0,0,381,1094,1060,1558,678,464,466-1422,466-1422s-730-1072-318-1823,2005-1791,2430-2496Z" transform="translate(-12103.676 -40305)" fill="#f47d35"/>
    <path id="Path_899" data-name="Path 899" d="M5015,52942s-126-244-804-1293c-678-1048-372-2466-372-2466-716,1714,481,3370,481,3370-10,7-19,15-29,22l725,366Z" transform="translate(-12103.676 -40305)" fill="#f05936"/>
    <path id="Path_900" data-name="Path 900" d="M10759,48782c-300-134-817-701-1222-1292l-568,1943s262,2632,261,2672-1039,1145-2787,1508c-1747,363-3496-689-3496-689s1852,2117,5551,1774c819-76,1440-202,1911-351,532-459,925-944,1152-1254-440,96-839,12-839,12,470-713,748-1338,913-1843-586-458-1185-1379-779-2097,524-926,316-1468,316-1468,70,633-414,1085-414,1085Z" transform="translate(-12103.676 -40305)" fill="#f05936"/>
    <path id="Path_901" data-name="Path 901" d="M6056,51176l150-1508s-1452-1655-503-2587c668-656,1274-1419,1575-1814-590,684-1868,1569-2231,2230-412,751,318,1823,318,1823s64,570,9,1006c371,460,682,851,682,851Z" transform="translate(-12103.676 -40305)" fill="#f05936"/>
    <path id="Path_902" data-name="Path 902" d="M11288,48169s119,838,0,1517-41,759,27,767c67,9,380-256,417-233s-97,620-182,671-509-438-631-961,228-927,277-1188C11246,48480,11269,48005,11288,48169Z" transform="translate(-12103.676 -40305)" fill="#f69244"/>
    <path id="Path_903" data-name="Path 903" d="M5972,47134s1141-1263,1370-1611c228-348,148,722,295,853,148,131,658-577,866-571,208,7,404,1142,700,1595s-2956,956-3258,889S5565,47590,5972,47134Z" transform="translate(-12103.676 -40305)" fill="#f69244"/>
    <path id="Path_904" data-name="Path 904" d="M4313,50463s-280-453-374-745-111,650,154,1153S4313,50463,4313,50463Z" transform="translate(-12103.676 -40305)" fill="#f69244"/>
    <path id="Path_905" data-name="Path 905" d="M3875,52864s-305,79-564,124,1576,366,1564,373-1001-497-1001-497Z" transform="translate(-12103.676 -40305)" fill="#f69244"/>
    <path id="Path_906" data-name="Path 906" d="M11923,51935s223-35,501-215,413-536,203-637c-377-180-763,559-703,852Z" transform="translate(-12103.676 -40305)" fill="#ce3c39"/>
    <path id="Path_907" data-name="Path 907" d="M12148,51558c6-70,28-221,45-330-183,203-305,533-269,707,0,0,223-35,501-215,44-29,85-62,121-98-180-63-408,53-397-63Z" transform="translate(-12103.676 -40305)" fill="#bb3438"/>
    <path id="Path_908" data-name="Path 908" d="M11923,51935s407-789,53-870S11386,51550,11923,51935Z" transform="translate(-12103.676 -40305)" fill="#ce3c39"/>
    <path id="Path_909" data-name="Path 909" d="M11834,51068c-264,74-372,537,89,867,0,0,17-33,41-86C11617,51566,11653,51205,11834,51068Z" transform="translate(-12103.676 -40305)" fill="#bb3438"/>
    <path id="Path_910" data-name="Path 910" d="M11940,51702s252-436,42-553C11869,51086,11679,51415,11940,51702Z" transform="translate(-12103.676 -40305)" fill="#e03d38"/>
    <path id="Path_911" data-name="Path 911" d="M11923,51935s121-213,376-290c256-77,532,299,342,435C12450,52216,12050,52043,11923,51935Z" transform="translate(-12103.676 -40305)" fill="#ce3c39"/>
    <path id="Path_912" data-name="Path 912" d="M12690,52024c-195,87-519,8-592-112-33-54-28-109-8-158-112,86-166,181-166,181,127,108,527,281,718,145,22-16,38-35,49-56Z" transform="translate(-12103.676 -40305)" fill="#bb3438"/>
    <path id="Path_913" data-name="Path 913" d="M12159,51829s82-131,204-140,280,158,257,245c-23,88-509,19-461-106Z" transform="translate(-12103.676 -40305)" fill="#e03d38"/>
    <path id="Path_914" data-name="Path 914" d="M12249,51490s-39-186,158-324c122-85,255,33,250,111-6,78-112,216-162,242s-225,48-245-28Z" transform="translate(-12103.676 -40305)" fill="#e03d38"/>
    <path id="Path_915" data-name="Path 915" d="M6884,47808s-417-1214-47-1475c370-262,787,268,960,811,0,0,119-875,770-798s421,1124,421,1124,418-533,785-313,64,1117,64,1117,543-131,766,441c223,571-441,1328-441,1328L7366,48990s-684-664-684-690,200-491,200-491Z" transform="translate(-12103.676 -40305)" fill="#ce3c39"/>
    <path id="Path_916" data-name="Path 916" d="M10512,49504c-222-99-543-361-921-835-561-705-1352-797-1818-736-466,60-642-121-811-880-76-339-80-586-60-757-21,10-43,22-64,37-370,262,47,1475,47,1475s-200,466-200,491c0,26,684,690,684,690l2796,1053s204-233,348-538Z" transform="translate(-12103.676 -40305)" fill="#b53437"/>
    <path id="Path_917" data-name="Path 917" d="M7797,47370s-456-915-681-880,140,1102,294,1223,1071-68,1635,323,1131,1107,1355,1128c224,20,259-786-691-823,0,0,257-915-62-1040s-797,386-797,386,72-1078-364-1139c-435-61-690,821-690,821Z" transform="translate(-12103.676 -40305)" fill="#e03d38"/>
    <path id="Path_918" data-name="Path 918" d="M3903,51447s-627-273-840-157-212,1151,704,1476l270-663-133-656Z" transform="translate(-12103.676 -40305)" fill="#fcce29"/>
    <path id="Path_919" data-name="Path 919" d="M3136,51266c-28,4-53,12-74,23-213,116-212,1151,704,1475l72-178c-692-297-804-1023-702-1321Z" transform="translate(-12103.676 -40305)" fill="#fac12d"/>
    <path id="Path_920" data-name="Path 920" d="M5344,54535s128,1056,446,1019c317-37,726-769,726-769Z" transform="translate(-12103.676 -40305)" fill="#f68e34"/>
    <path id="Path_921" data-name="Path 921" d="M5889,55429c-254,28-392-582-443-871l-102-22s128,1056,446,1019c135-16,286-157,416-314-104,100-215,177-316,188Z" transform="translate(-12103.676 -40305)" fill="#f37835"/>
    <path id="Path_922" data-name="Path 922" d="M6884,47808s73,359,421,571c0,0,1085-1105,2498,761s1236,2381,2181,2769c0,0-1023,3089-4508,3224-3484,135-4134-2262-3780-3806S5405,47841,6884,47808Z" transform="translate(-12103.676 -40305)" fill="#fcce29"/>
    <path id="Path_923" data-name="Path 923" d="M6814,48751s138,315,396,288c257-27,936-588,1507-230s1777,2631,2373,3186-1425,2204-3292,2014c-1868-190-2644-1410-2647-2536-3-1364,1347-3217,1663-2723Z" transform="translate(-12103.676 -40305)" fill="#fcd94a"/>
    <path id="Path_924" data-name="Path 924" d="M4488,51927c6-2580,2396-4119,2396-4119-1479,33-2833,1975-3188,3519-354,1544,295,3941,3780,3806,952-37,1720-294,2334-649-2714,358-5327-211-5322-2558Z" transform="translate(-12103.676 -40305)" fill="#fac12d"/>
    <path id="Path_925" data-name="Path 925" d="M7020,51180s131,223,147,387-160,428-160,428,366-75,402-93,165-171,165-210-16-106-12-137-20-67-67-132-345-278-474-243Z" transform="translate(-12103.676 -40305)" fill="#692c2c"/>
    <path id="Path_926" data-name="Path 926" d="M7020,51180s131,223,147,387-160,428-160,428,208-43,325-72c67-54,111-97,58-78-124,43-145-62-163-259-14-157-83-302-111-356-2-4-13-23-28-50C7063,51175,7039,51175,7020,51180Z" transform="translate(-12103.676 -40305)" fill="#582d2d"/>
    <path id="Path_927" data-name="Path 927" d="M6714,51230s552-136,762,416c0,0-139,317-592,323,0,0,54,238,395,196s502-548,502-548-94-678-520-799-575,293-547,411Z" transform="translate(-12103.676 -40305)" fill="#f68e34"/>
    <path id="Path_928" data-name="Path 928" d="M6905,51052c-11-83,34-170,81-235-215,74-292,325-272,413,0,0,552-136,762,416C7374,51098,6925,51217,6905,51052Z" transform="translate(-12103.676 -40305)" fill="#f37835"/>
    <path id="Path_929" data-name="Path 929" d="M7132,51116s264,66,356,382c92,317-225,436-356,483s7,166,186,108c180-58,383-390,393-511s-192-662-466-702-283,186-114,240Z" transform="translate(-12103.676 -40305)" fill="#f9a24a"/>
    <path id="Path_930" data-name="Path 930" d="M7289,51660s-24-147-43-229,166,144,167,197S7309,51772,7289,51660Z" transform="translate(-12103.676 -40305)" fill="#7a2d2e"/>
    <path id="Path_931" data-name="Path 931" d="M9384,50396c-26-29-71-32-100-6l-280,246-246-280c-26-29-71-32-100-6a70.894,70.894,0,0,0-24,53c0,17,6,33,18,47l246,280-280,246c-29,26-32,71-6,100a70.894,70.894,0,0,0,53,24c17,0,33-6,47-18l280-246,246,280c26,29,71,32,100,6s32-71,6-100l-246-280,280-246C9408,50470,9410,50425,9384,50396Z" transform="translate(-12103.676 -40305)" fill="#282828"/>
    <path id="Path_932" data-name="Path 932" d="M10028,51327c0,116-118,211-263,211s-263-94-263-211c0-116,118-211,263-211S10028,51210,10028,51327Z" transform="translate(-12103.676 -40305)" fill="#f59a9c"/>
    <path id="Path_933" data-name="Path 933" d="M5941,50396c-26-29-71-32-100-6l-280,246-246-280c-26-29-71-32-100-6a70.894,70.894,0,0,0-24,53c0,17,6,33,18,47l246,280-280,246c-29,26-32,71-6,100a70.894,70.894,0,0,0,53,24c17,0,33-6,47-18l280-246,246,280c26,29,71,32,100,6s32-71,6-100l-246-280,280-246C5964,50470,5967,50425,5941,50396Z" transform="translate(-12103.676 -40305)" fill="#282828"/>
    <path id="Path_934" data-name="Path 934" d="M5015,51327c0,116-118,211-263,211s-263-94-263-211c0-116,118-211,263-211S5015,51210,5015,51327Z" transform="translate(-12103.676 -40305)" fill="#f59a9c"/>
    <path id="Path_935" data-name="Path 935" d="M9211,54077s470,0,579,406-500,979-827,854S8559,54092,9211,54077Z" transform="translate(-12103.676 -40305)" fill="#f68e34"/>
    <path id="Path_936" data-name="Path 936" d="M9370,54352s218-8,270,283c53,291-407,650-581,574-155-68-148-885,310-857Z" transform="translate(-12103.676 -40305)" fill="#f9a24a"/>
    <path id="Path_937" data-name="Path 937" d="M9330,54219s235,0,412,144c-159-286-531-287-531-287-629,14-580,1056-282,1243C8752,54975,8800,54231,9330,54219Z" transform="translate(-12103.676 -40305)" fill="#f37835"/>
    <path id="Path_938" data-name="Path 938" d="M10069,52050s116,180,253,159,654-217,735,58-590,838-590,838,587-257,690-720-324-401-639-334-450,0-450,0Z" transform="translate(-12103.676 -40305)" fill="#f79633"/>
    <path id="Path_939" data-name="Path 939" d="M5747,55028s364,45,384,98c20,54-147,207-249,204C5780,55326,5626,55019,5747,55028Z" transform="translate(-12103.676 -40305)" fill="#f9a24a"/>
    <path id="Path_940" data-name="Path 940" d="M3514,51441s-221-62-315-28,98,693,245,729C3561,52170,3594,51460,3514,51441Z" transform="translate(-12103.676 -40305)" fill="#fcd94a"/>
    <path id="Path_941" data-name="Path 941" d="M10787,54117c-12,5,613-606,784-944l214-37S11676,53758,10787,54117Z" transform="translate(-12103.676 -40305)" fill="#f69244"/>
  </g>
</svg>
