<svg xmlns="http://www.w3.org/2000/svg" width="12227.535" height="12373.264" viewBox="0 0 12227.535 12373.264">
  <g id="_11" data-name="11" transform="translate(-11409.016 -8080.641)">
    <path id="Path_335" data-name="Path 335" d="M50389,27837c-7,17-627,447-407,807s830-40,830-40-33,503,510,400,354-520,354-520,213,350,646,160-133-1027-133-1027Z" transform="translate(-33376.676 -8564)" fill="#ce3c39"/>
    <path id="Path_336" data-name="Path 336" d="M50152,28459c-58-332,249-549,249-549s-12-22-34-53c-108,89-582,466-385,788,220,360,830-40,830-40s-602,186-660-145Z" transform="translate(-33376.676 -8564)" fill="#bb3438"/>
    <path id="Path_337" data-name="Path 337" d="M51144,28858c-178-146-155-540-155-540l-176,286s-33,503,510,400c140-27,232-74,290-130-147,39-359,73-468-17Z" transform="translate(-33376.676 -8564)" fill="#bb3438"/>
    <path id="Path_338" data-name="Path 338" d="M52322,28644c100-44,147-121,159-215-372,109-881-111-881-111l195,244-4,44c105,79,281,148,530,39Z" transform="translate(-33376.676 -8564)" fill="#bb3438"/>
    <path id="Path_339" data-name="Path 339" d="M54978,23491s589-73,1005-229c415-156,740,1173-845,2064,0,0-358-1446-159-1835Z" transform="translate(-33376.676 -8564)" fill="#fcce29"/>
    <path id="Path_340" data-name="Path 340" d="M56110,24438c-556-173-654-743-668-1026-256,53-464,79-464,79-199,389,159,1835,159,1835,487-273,794-588,973-889Z" transform="translate(-33376.676 -8564)" fill="#fac12d"/>
    <path id="Path_341" data-name="Path 341" d="M46672,23248s-445-85-860-372c-415-288-955,907,620,1967Z" transform="translate(-33376.676 -8564)" fill="#fcce29"/>
    <path id="Path_342" data-name="Path 342" d="M45607,22846c-331,130-492,1110,825,1996l37-246C45519,23903,45437,23171,45607,22846Z" transform="translate(-33376.676 -8564)" fill="#fac12d"/>
    <path id="Path_343" data-name="Path 343" d="M49651,19439s-327-757,359-1150c686-392,1062,55,1106,243,0,0,332-440,1028-400,697,40,911,748,854,1052,0,0,1513-201,1214,1338,0,0,1023,538,288,1413-736,875-4667-1789-4667-1789l-182-708Z" transform="translate(-33376.676 -8564)" fill="#ce3c39"/>
    <path id="Path_344" data-name="Path 344" d="M54754,21447c-136,7-307-47-455-295-300-504-1428-1770-2471-1914-1044-144-1663,521-1890,0-136-312-22-699,91-959-6,3-12,7-18,10-686,393-359,1150-359,1150l182,708s3931,2664,4667,1789c149-177,226-341,254-489Z" transform="translate(-33376.676 -8564)" fill="#bb3438"/>
    <path id="Path_345" data-name="Path 345" d="M50068,19832s705-626,1890-417c1184,209,2847,2158,3288,3935,442,1777-5,4225-3693,4654-3739,435-5264-2245-5313-3571-49-1325,1067-3822,3411-4994C49651,19439,49730,19659,50068,19832Z" transform="translate(-33376.676 -8564)" fill="#fcce29"/>
    <path id="Path_346" data-name="Path 346" d="M49762,20458s127,176,373,239c247,63,602-654,1617-677s2555,1835,2860,3590-764,3188-3443,2982c-2680-206-3617-2424-3164-3995C48316,21518,49431,20160,49762,20458Z" transform="translate(-33376.676 -8564)" fill="#fcd94a"/>
    <path id="Path_347" data-name="Path 347" d="M49651,19439c-2344,1172-3460,3669-3411,4994s1574,4005,5313,3571c1240-144,2113-517,2710-1015-2417,596-5435,711-6872-2254C46245,22370,49651,19439,49651,19439Z" transform="translate(-33376.676 -8564)" fill="#fac12d"/>
    <path id="Path_348" data-name="Path 348" d="M47318,25691s64-453,470-504c407-50,877,615,712,913-164,299-1256,222-1182-410Z" transform="translate(-33376.676 -8564)" fill="#f68e34"/>
    <path id="Path_349" data-name="Path 349" d="M47605,25575s23-211,310-223c288-12,572,480,475,638C48303,26130,47516,26013,47605,25575Z" transform="translate(-33376.676 -8564)" fill="#f9a24a"/>
    <path id="Path_350" data-name="Path 350" d="M47472,25595s32-227,195-378c-298,114-348,474-348,474-71,609,941,702,1161,441-356,124-1068-23-1007-537Z" transform="translate(-33376.676 -8564)" fill="#f37835"/>
    <path id="Path_351" data-name="Path 351" d="M53876,25153s452,74,493,482c41,407-635,862-930,691S53246,25065,53876,25153Z" transform="translate(-33376.676 -8564)" fill="#f68e34"/>
    <path id="Path_352" data-name="Path 352" d="M53985,25442s210,27,215,315-493,561-648,460c-138-90-3-874,433-776Z" transform="translate(-33376.676 -8564)" fill="#f9a24a"/>
    <path id="Path_353" data-name="Path 353" d="M53968,25308s227,37,373,203c-108-300-466-359-466-359-607-85-724,924-467,1151-116-359,47-1067,559-995Z" transform="translate(-33376.676 -8564)" fill="#f37835"/>
    <path id="Path_354" data-name="Path 354" d="M48990,22133c-363-331-595,213-595,213s-321-497-623-109,345,902,706,1083C48803,23080,49353,22465,48990,22133Z" transform="translate(-33376.676 -8564)" fill="#f16263"/>
    <path id="Path_355" data-name="Path 355" d="M48006,22597c-147-310,9-449,91-498-99-28-213-6-324,137-302,388,345,902,706,1083,70-51,149-120,228-199C48447,23089,48143,22884,48006,22597Z" transform="translate(-33376.676 -8564)" fill="#ef4542"/>
    <path id="Path_356" data-name="Path 356" d="M48425,22543s-136-263-236-257-127,98-48,265,417,458,548,352c130-106,337-414,270-566s-270-341-533,206Z" transform="translate(-33376.676 -8564)" fill="#f37f81"/>
    <path id="Path_357" data-name="Path 357" d="M53914,22062c-333-361-611,161-611,161s-278-522-611-161,267,928,612,1139c344-211,944-778,611-1139Z" transform="translate(-33376.676 -8564)" fill="#f16263"/>
    <path id="Path_358" data-name="Path 358" d="M52894,22442c-120-321,47-447,133-488-96-36-211-23-334,109-333,361,267,928,612,1139,73-45,159-107,244-179-257-53-542-283-654-581Z" transform="translate(-33376.676 -8564)" fill="#ef4542"/>
    <path id="Path_359" data-name="Path 359" d="M53315,22424s-113-273-214-276c-100-3-135,87-70,260s377,492,516,397,371-384,317-541S53623,21902,53315,22424Z" transform="translate(-33376.676 -8564)" fill="#f37f81"/>
    <path id="Path_360" data-name="Path 360" d="M47662,23299c0,117-121,212-271,212s-271-95-271-212,121-212,271-212S47662,23182,47662,23299Z" transform="translate(-33376.676 -8564)" fill="#f59a9c"/>
    <path id="Path_361" data-name="Path 361" d="M54613,23138c0,117-121,212-271,212s-271-95-271-212,121-212,271-212S54613,23021,54613,23138Z" transform="translate(-33376.676 -8564)" fill="#f59a9c"/>
    <path id="Path_362" data-name="Path 362" d="M50598,22838s-7-101,17-135c25-33,657-52,686-5,30,47,6,367-239,434-245,68-421-54-453-288l-12-5Z" transform="translate(-33376.676 -8564)" fill="#692c2c"/>
    <path id="Path_363" data-name="Path 363" d="M50698,22685c-47,5-78,12-83,18-24,33-17,135-17,135l12,5c32,234,208,356,453,288,60-17,107-48,143-88-19,1-42,2-68,5-326,36-420-265-439-364Z" transform="translate(-33376.676 -8564)" fill="#582d2d"/>
    <path id="Path_364" data-name="Path 364" d="M50615,22703s80,407,327,403,314-332,318-403c5-70,91-32,91-32s269,767-387,774c-616,7-431-791-431-791l80,50Z" transform="translate(-33376.676 -8564)" fill="#f68e34"/>
    <path id="Path_365" data-name="Path 365" d="M51016,23368c-482,5-474-481-447-694l-34-21s-186,797,431,791c220-2,337-91,393-207C51292,23314,51185,23366,51016,23368Z" transform="translate(-33376.676 -8564)" fill="#f37835"/>
    <path id="Path_366" data-name="Path 366" d="M50939,22325s213-15,349,152,102,305-297,305-513-45-509-172c3-94,156-284,457-284Z" transform="translate(-33376.676 -8564)" fill="#f68e34"/>
    <path id="Path_367" data-name="Path 367" d="M50961,22376s148-4,239,99c91,104,65,186-212,178-277-9-355-38-350-115C50642,22481,50752,22370,50961,22376Z" transform="translate(-33376.676 -8564)" fill="#f9a24a"/>
    <path id="Path_368" data-name="Path 368" d="M51063,22715c-400,0-513-45-509-172,1-32,20-76,56-119-84,61-126,136-128,186-4,127,110,172,509,172,223,0,332-43,361-111C51293,22699,51199,22715,51063,22715Z" transform="translate(-33376.676 -8564)" fill="#f37835"/>
    <path id="Path_369" data-name="Path 369" d="M50662,22945s62,213,296,214,319-252,340-310,93,35,68,200-206,282-414,264-325-240-339-345c-15-105,24-91,49-24Z" transform="translate(-33376.676 -8564)" fill="#f9a24a"/>
    <path id="Path_370" data-name="Path 370" d="M50862,22823s216,8,283,0-19,145-110,170C50943,23018,50750,22821,50862,22823Z" transform="translate(-33376.676 -8564)" fill="#7a2d2e"/>
    <path id="Path_371" data-name="Path 371" d="M51124,18701s-355-522-803-377c-448,146-251,770-71,857,180,86,699-136,1565-108,866,29,2052,1282,2236,1510,185,229,409,669,488,684s100-213-403-734c0,0-42-882-454-1130-411-248-830-108-830-108s-56-879-649-1018c-594-139-1080,422-1080,422Z" transform="translate(-33376.676 -8564)" fill="#e03d38"/>
    <path id="Path_372" data-name="Path 372" d="M46223,23266s-202-51-410-228-250,589,152,888C46136,24054,46345,23312,46223,23266Z" transform="translate(-33376.676 -8564)" fill="#fcd94a"/>
    <path id="Path_373" data-name="Path 373" d="M55685,23514s258-123,387-71c130,52,113,597-35,672C55824,24222,55482,23617,55685,23514Z" transform="translate(-33376.676 -8564)" fill="#fcd94a"/>
    <path id="Path_374" data-name="Path 374" d="M50847,28806c9-251,142-488,142-488-120,121-176,286-176,286S50806,28704,50847,28806Z" transform="translate(-33376.676 -8564)" fill="#9b3234"/>
    <path id="Path_375" data-name="Path 375" d="M51601,28318l75,166s174,285,527,201C51898,28558,51601,28318,51601,28318Z" transform="translate(-33376.676 -8564)" fill="#9b3234"/>
    <path id="Path_376" data-name="Path 376" d="M50526,28164c9,0,1190-65,1498-125,309-60,334,196,264,286-71,90-761-73-761-73s205,488-125,542-399-558-399-558-156,236-325,287c-169,52-355-9-391-133s57-226,240-226Z" transform="translate(-33376.676 -8564)" fill="#e03d38"/>
    <path id="Path_377" data-name="Path 377" d="M45376,25148s70,934,884,1465C46260,26613,45124,26412,45376,25148Z" transform="translate(-33376.676 -8564)" fill="#f79233"/>
    <path id="Path_378" data-name="Path 378" d="M45121,24519c23-28-325,1155,311,1784C45432,26303,44215,25655,45121,24519Z" transform="translate(-33376.676 -8564)" fill="#f79233"/>
    <path id="Path_379" data-name="Path 379" d="M55721,26642s384-347,340-1113C56061,25529,56573,25995,55721,26642Z" transform="translate(-33376.676 -8564)" fill="#f79233"/>
    <path id="Path_380" data-name="Path 380" d="M56110,26684s449-524,379-1062C56489,25622,56951,26004,56110,26684Z" transform="translate(-33376.676 -8564)" fill="#f79233"/>
    <path id="Path_381" data-name="Path 381" d="M47329,19648c-317-237-459,217-459,217s-297-372-507-38c-211,334,347,694,650,811C47254,20420,47645,19884,47329,19648Z" transform="translate(-33376.676 -8564)" fill="#f16263"/>
    <path id="Path_382" data-name="Path 382" d="M46578,20097c-142-236-28-360,33-406-82-15-171,12-248,136-211,334,347,694,650,811,52-46,110-108,166-177-211-4-470-144-602-363Z" transform="translate(-33376.676 -8564)" fill="#ef4542"/>
    <path id="Path_383" data-name="Path 383" d="M46908,20021s-130-199-209-187c-80,13-94,88-17,216,77,127,370,334,466,239s237-358,171-474-243-251-410,207Z" transform="translate(-33376.676 -8564)" fill="#f37f81"/>
    <path id="Path_384" data-name="Path 384" d="M49166,16724c-368-275-535,253-535,253s-345-433-590-44,404,808,757,943C49079,17623,49534,16999,49166,16724Z" transform="translate(-33376.676 -8564)" fill="#f16263"/>
    <path id="Path_385" data-name="Path 385" d="M48292,17247c-165-275-33-419,39-472-95-17-199,14-289,158-245,389,404,808,757,943,60-54,128-126,194-206C48747,17665,48446,17502,48292,17247Z" transform="translate(-33376.676 -8564)" fill="#ef4542"/>
    <path id="Path_386" data-name="Path 386" d="M48677,17158s-151-232-244-217-110,103-20,251c89,148,431,388,542,278,112-111,276-417,199-552s-283-292-478,241Z" transform="translate(-33376.676 -8564)" fill="#f37f81"/>
    <path id="Path_387" data-name="Path 387" d="M55583,17445c-318-374-617,136-617,136s-256-533-604-186,228,938,564,1163c353-197,975-738,657-1112Z" transform="translate(-33376.676 -8564)" fill="#f16263"/>
    <path id="Path_388" data-name="Path 388" d="M54548,17782c-106-326,66-444,153-482-95-40-211-32-339,96-348,347,228,938,564,1163,75-42,163-100,251-169-255-63-530-305-629-607Z" transform="translate(-33376.676 -8564)" fill="#ef4542"/>
    <path id="Path_389" data-name="Path 389" d="M54970,17781s-102-277-202-284-138,81-81,256c58,176,356,507,499,418,142-89,387-368,339-527S55300,17272,54970,17781Z" transform="translate(-33376.676 -8564)" fill="#f37f81"/>
    <path id="Path_390" data-name="Path 390" d="M56960,20542c-252-422-631,32-631,32s-165-568-565-283,70,962,364,1240C56508,21395,57212,20964,56960,20542Z" transform="translate(-33376.676 -8564)" fill="#f16263"/>
    <path id="Path_391" data-name="Path 391" d="M55884,20703c-52-339,138-427,230-450-87-55-202-67-350,38-400,285,70,962,364,1240,81-29,177-72,275-125-241-105-473-388-520-703Z" transform="translate(-33376.676 -8564)" fill="#ef4542"/>
    <path id="Path_392" data-name="Path 392" d="M56300,20772s-55-291-152-314-150,57-122,240,268,559,423,495,442-299,421-464S56709,20325,56300,20772Z" transform="translate(-33376.676 -8564)" fill="#f37f81"/>
  </g>
</svg>
