<svg xmlns="http://www.w3.org/2000/svg" width="11605.436" height="11756.234" viewBox="0 0 11605.436 11756.234">
  <g id="_2" data-name="2" transform="translate(11629.705 -3823.316)">
    <path id="Path_834" data-name="Path 834" d="M32464,54412s-843,238-863,698c-19,460,1483,383,2123-233h3470s684,809,1454,659c771-150-223-1309-223-1309l-5962,184Z" transform="translate(-41656.676 -39975)" fill="#f68e34"/>
    <path id="Path_835" data-name="Path 835" d="M38648,55537c178-35,262-124,285-240-990,258-1530-557-1530-557s-3485-196-3785,82-1567,660-1700,246c-50-155-13-308,53-441-189,115-363,276-372,482-19,460,1483,383,2123-233h3470s684,809,1454,659Z" transform="translate(-41656.676 -39975)" fill="#f37835"/>
    <path id="Path_836" data-name="Path 836" d="M34008,45917s-607-1850,455-2090,1317,1105,1317,1105,423-1182,1220-913c798,269,557,1605,557,1605s682-418,1192,29,0,1144,0,1144,716-135,980,769c264,903-865,1725-865,1725s-4767-1437-4776-1504c-10-67-80-1869-80-1869Z" transform="translate(-41656.676 -39975)" fill="#ce3c39"/>
    <path id="Path_837" data-name="Path 837" d="M39076,48339c-245-282-984-1934-2235-2422-740-289-1364-178-1771-67-281,76-459,153-502,98-105-134-344-683-399-1359-26-309,136-572,320-768-9,2-18,3-27,5-1062,240-455,2090-455,2090s70,1802,80,1869,4776,1504,4776,1504,499-364,756-873c-190,50-417,67-544-79Z" transform="translate(-41656.676 -39975)" fill="#bb3438"/>
    <path id="Path_838" data-name="Path 838" d="M40582,50756s296-67,652-334,505-757,213-872C40925,49344,40476,50369,40582,50756Z" transform="translate(-41656.676 -39975)" fill="#ce3c39"/>
    <path id="Path_839" data-name="Path 839" d="M40849,50230c2-95,17-299,30-447-227,288-359,743-297,972,0,0,296-67,652-334a1048.156,1048.156,0,0,0,154-143c-247-68-542,109-538-49Z" transform="translate(-41656.676 -39975)" fill="#bb3438"/>
    <path id="Path_840" data-name="Path 840" d="M40582,50756s473-1095-9-1171S39826,50289,40582,50756Z" transform="translate(-41656.676 -39975)" fill="#ce3c39"/>
    <path id="Path_841" data-name="Path 841" d="M40383,49601c-347,123-450,754,199,1155,0,0,20-46,47-119-492-347-476-835-246-1035Z" transform="translate(-41656.676 -39975)" fill="#bb3438"/>
    <path id="Path_842" data-name="Path 842" d="M40584,50441s298-608,6-746C40432,49621,40208,50080,40584,50441Z" transform="translate(-41656.676 -39975)" fill="#e03d38"/>
    <path id="Path_843" data-name="Path 843" d="M40582,50756s142-297,478-423c336-127,742,353,498,552S40762,50890,40582,50756Z" transform="translate(-41656.676 -39975)" fill="#ce3c39"/>
    <path id="Path_844" data-name="Path 844" d="M41618,50805c-253,134-695,58-804-96-49-69-47-144-26-211-142,126-206,258-206,258,180,134,732,329,976,129C41586,50862,41606,50835,41618,50805Z" transform="translate(-41656.676 -39975)" fill="#bb3438"/>
    <path id="Path_845" data-name="Path 845" d="M40888,50592s98-183,261-206,390,186,367,306S40836,50764,40888,50592Z" transform="translate(-41656.676 -39975)" fill="#e03d38"/>
    <path id="Path_846" data-name="Path 846" d="M40978,50129s-70-246,181-449c155-126,346,21,345,126,0,105-130,299-195,339-65,39-298,86-331-15Z" transform="translate(-41656.676 -39975)" fill="#e03d38"/>
    <path id="Path_847" data-name="Path 847" d="M34398,46504s1373-1320,3023,0c1649,1320,1964,4099,3191,4206,0,0,971,3896-3462,4448s-6740-1234-7090-3636c-360-2469,2306-5262,3947-5604C34007,45918,34142,46253,34398,46504Z" transform="translate(-41656.676 -39975)" fill="#fcce29"/>
    <path id="Path_848" data-name="Path 848" d="M36765,53216c-63,388-752,42-1123,0-157-18-345,51-544,120-272,94-564,188-827,62-456-218-1386-1379-759-1669,0,0,723-315,1308-163,291,76,581-1,846-77,267-77,508-154,698-75,377,158,465,1413,402,1802Zm3418-2094c-209-381-829-18-1232-687s-1281-3446-2395-3758c-1115-313-1500,395-1943,458-185,26-297-100-414-227-163-177-335-354-726-115-671,412-1643,3058-1643,3058-290,733,185,2720,1870,3608,1686,888,4747,696,5494,145s1197-2101,988-2482Z" transform="translate(-41656.676 -39975)" fill="#fcd94a"/>
    <path id="Path_849" data-name="Path 849" d="M34008,52034s1066-74,1292,802l127-123-78-279-120-184s87-446,881-521c0,0-552,222-624,460-73,238,133,519,133,519l-154-54-149-207s-239-399-461-477c-223-78-531-75-845,65Z" transform="translate(-41656.676 -39975)" fill="#fac12d"/>
    <path id="Path_850" data-name="Path 850" d="M38342,54364c-4433,552-6740-1234-7090-3636-245-1680,912-3510,2193-4616-1619,748-3705,3207-3384,5409,350,2402,2658,4189,7090,3636,1299-162,2134-611,2665-1165C39407,54162,38921,54292,38342,54364Z" transform="translate(-41656.676 -39975)" fill="#fac12d"/>
    <path id="Path_851" data-name="Path 851" d="M34461,49666h1417v-375H34461Z" transform="translate(-41656.676 -39975)" fill="#313030"/>
    <path id="Path_852" data-name="Path 852" d="M34853,49584a84.929,84.929,0,0,1-85-85v-204l1-3h-307v375h1417v-82H34854Z" transform="translate(-41656.676 -39975)" fill="#282828"/>
    <path id="Path_853" data-name="Path 853" d="M38626,49031v376c0,636-515,1151-1151,1151h-648c-636,0-1151-515-1151-1151v-376Z" transform="translate(-41656.676 -39975)" fill="#313030"/>
    <path id="Path_854" data-name="Path 854" d="M38436,49220v219c0,371-382,672-853,672h-481c-471,0-854-301-854-672v-219h2188Z" transform="translate(-41656.676 -39975)" fill="#3a3a3a"/>
    <path id="Path_855" data-name="Path 855" d="M37705,50327h-648c-636,0-1151-515-1151-1151v-145h-231v376c0,636,515,1151,1151,1151h648c377,0,710-182,920-461-192,144-430,231-689,231Z" transform="translate(-41656.676 -39975)" fill="#282828"/>
    <path id="Path_856" data-name="Path 856" d="M37478,50557h0Zm4,0h0Zm4,0h0Zm3,0h0Zm4,0h0Zm3,0h0Zm4,0c367-8,690-188,896-461-192,144-430,231-689,231h-426l224-215h80c471,0,853-301,853-672v-219h-7l197-189v376c0,627-502,1138-1127,1151Z" transform="translate(-41656.676 -39975)" fill="#464646"/>
    <path id="Path_857" data-name="Path 857" d="M37583,50112h-80l926-891h7v219C38436,49811,38054,50112,37583,50112Z" transform="translate(-41656.676 -39975)" fill="#535353"/>
    <path id="Path_858" data-name="Path 858" d="M37475,50557h-435l239-231h426c259,0,497-87,689-231-205,274-529,453-896,461h-26Z" transform="translate(-41656.676 -39975)" fill="#393939"/>
    <path id="Path_859" data-name="Path 859" d="M36330,50068c-138-113-249-256-323-420,78-65,159-134,242-204,2,180,93,343,240,463l-159,162Zm831-848h-648c75-64,150-127,223-189h611Q37257,49122.5,37161,49220Z" transform="translate(-41656.676 -39975)" fill="#464646"/>
    <path id="Path_860" data-name="Path 860" d="M36489,49906c-147-120-238-283-240-463,87-73,176-149,264-223h648C36949,49437,36717,49673,36489,49906Z" transform="translate(-41656.676 -39975)" fill="#535353"/>
    <path id="Path_861" data-name="Path 861" d="M36103,50301a1151.87,1151.87,0,0,1-337-449c74-62,156-131,242-203,74,164,185,308,323,420C36254,50148,36178,50226,36103,50301Z" transform="translate(-41656.676 -39975)" fill="#393939"/>
    <path id="Path_862" data-name="Path 862" d="M34692,49031v376c0,636-515,1151-1151,1151h-648c-636,0-1151-515-1151-1151v-376Z" transform="translate(-41656.676 -39975)" fill="#313030"/>
    <path id="Path_863" data-name="Path 863" d="M34503,49220v219c0,371-382,672-853,672h-481c-471,0-853-301-853-672v-219Z" transform="translate(-41656.676 -39975)" fill="#3a3a3a"/>
    <path id="Path_864" data-name="Path 864" d="M33772,50327h-648c-636,0-1151-515-1151-1151v-145h-231v376c0,636,515,1151,1151,1151h648c377,0,710-182,920-461-192,144-431,231-689,231Z" transform="translate(-41656.676 -39975)" fill="#282828"/>
    <path id="Path_865" data-name="Path 865" d="M33545,50557h0Z" transform="translate(-41656.676 -39975)" fill="#464646"/>
    <path id="Path_866" data-name="Path 866" d="M33548,50557h0Z" transform="translate(-41656.676 -39975)" fill="#464646"/>
    <path id="Path_867" data-name="Path 867" d="M33552,50557h0Z" transform="translate(-41656.676 -39975)" fill="#464646"/>
    <path id="Path_868" data-name="Path 868" d="M33555,50557h0Z" transform="translate(-41656.676 -39975)" fill="#464646"/>
    <path id="Path_869" data-name="Path 869" d="M33559,50557h0Z" transform="translate(-41656.676 -39975)" fill="#464646"/>
    <path id="Path_870" data-name="Path 870" d="M33562,50557h0Z" transform="translate(-41656.676 -39975)" fill="#464646"/>
    <path id="Path_871" data-name="Path 871" d="M33566,50557c367-8,690-188,896-461-192,144-431,231-689,231h-426l224-215h80c471,0,853-301,853-672v-219h-7l196-189v376a1161.636,1161.636,0,0,1-29,259h0c-116,503-561,880-1097,892Z" transform="translate(-41656.676 -39975)" fill="#464646"/>
    <path id="Path_872" data-name="Path 872" d="M33650,50112h-80l926-891h7v219C34503,49811,34121,50112,33650,50112Z" transform="translate(-41656.676 -39975)" fill="#535353"/>
    <path id="Path_873" data-name="Path 873" d="M33541,50557h-435l239-231h426c259,0,497-87,689-231-205,274-529,453-896,461h-25Z" transform="translate(-41656.676 -39975)" fill="#393939"/>
    <path id="Path_874" data-name="Path 874" d="M32397,50068c-138-113-249-256-323-420,78-65,159-134,242-204,1,180,93,343,240,463-53,54-106,108-158,162Zm831-848h-649c75-64,150-127,223-189h612Q33324,49122.5,33228,49220Z" transform="translate(-41656.676 -39975)" fill="#464646"/>
    <path id="Path_875" data-name="Path 875" d="M32555,49906c-147-120-238-283-240-463,87-73,176-149,264-223h649C33015,49437,32784,49673,32555,49906Z" transform="translate(-41656.676 -39975)" fill="#535353"/>
    <path id="Path_876" data-name="Path 876" d="M32169,50301a1151.87,1151.87,0,0,1-337-449c74-62,156-131,242-203,74,164,185,308,323,420C32320,50148,32244,50226,32169,50301Z" transform="translate(-41656.676 -39975)" fill="#393939"/>
    <path id="Path_877" data-name="Path 877" d="M35554,49529h-660a73.833,73.833,0,0,1-74-74v-38a73.833,73.833,0,0,1,74-74h660a73.833,73.833,0,0,1,74,74v38A73.833,73.833,0,0,1,35554,49529Z" transform="translate(-41656.676 -39975)" fill="#3a3a3a"/>
    <path id="Path_878" data-name="Path 878" d="M30060,47992s538-149,538-538c0,0,125,538,539,538,0,0-539,176-539,539C30598,48531,30499,47992,30060,47992Z" transform="translate(-41656.676 -39975)" fill="#f79233"/>
    <path id="Path_879" data-name="Path 879" d="M40251,46556s539-149,539-539c0,0,125,539,539,539,0,0-539,176-539,538C40790,47094,40691,46556,40251,46556Z" transform="translate(-41656.676 -39975)" fill="#f79233"/>
    <path id="Path_880" data-name="Path 880" d="M31005,48990s737-203,737-737c0,0,171,737,737,737,0,0-737,242-737,737C31742,49727,31606,48990,31005,48990Z" transform="translate(-41656.676 -39975)" fill="#f79233"/>
    <path id="Path_881" data-name="Path 881" d="M39299,50557c0,154-156,279-348,279s-348-125-348-279,156-278,348-278S39299,50404,39299,50557Z" transform="translate(-41656.676 -39975)" fill="#f59a9c"/>
    <path id="Path_882" data-name="Path 882" d="M31485,50557c0,154-156,279-348,279s-348-125-348-279,156-278,348-278S31485,50404,31485,50557Z" transform="translate(-41656.676 -39975)" fill="#f59a9c"/>
    <path id="Path_883" data-name="Path 883" d="M34972,50787s73,458,242,459,348-348,348-348S35258,50674,34972,50787Z" transform="translate(-41656.676 -39975)" fill="#f68e34"/>
    <path id="Path_884" data-name="Path 884" d="M35261,51182c-136-1-210-297-233-413-19,5-37,10-56,18,0,0,73,458,242,459,100,1,203-121,271-220C35421,51107,35340,51183,35261,51182Z" transform="translate(-41656.676 -39975)" fill="#f37835"/>
    <path id="Path_885" data-name="Path 885" d="M34972,50787s101-362,350-362c148,0,419,466,402,697,0,0-409-292-752-336Z" transform="translate(-41656.676 -39975)" fill="#f68e34"/>
    <path id="Path_886" data-name="Path 886" d="M35150,50668c0-71,50-160,103-233-198,58-281,351-281,351,343,43,752,336,752,336,2-19,0-41-2-63C35539,50853,35150,50789,35150,50668Z" transform="translate(-41656.676 -39975)" fill="#f37835"/>
    <path id="Path_887" data-name="Path 887" d="M35238,50644s28-122,110-141c82-20,286,349,294,414C35642,50917,35224,50720,35238,50644Z" transform="translate(-41656.676 -39975)" fill="#f9a24a"/>
    <path id="Path_888" data-name="Path 888" d="M35143,50872s230,48,276,113-120,142-171,137C35175,51115,35059,50857,35143,50872Z" transform="translate(-41656.676 -39975)" fill="#f9a24a"/>
    <path id="Path_889" data-name="Path 889" d="M36248,53216s-48-463-762-581c-20-100-85-263-201-414v-1c79-316,845-490,824-491-602-41-851,279-917,386-237-235-622-383-1184-82,0,0,616-226,990,103,375,328,409,570,318,621-90,51-698,97-842,400,0,0,295-185,534-216,235-30,435-84,480-220,155,34,586,158,760,493Z" transform="translate(-41656.676 -39975)" fill="#f79633"/>
    <path id="Path_890" data-name="Path 890" d="M34151,52200s618,45,821,293-276,280-510,414c-235,133-639-759-310-707Z" transform="translate(-41656.676 -39975)" fill="#fcd94a"/>
    <path id="Path_891" data-name="Path 891" d="M36137,51829c-11,3-343,117-476,369s48,346,179,404c130,58,365,232,442,385s126-244,93-547-81-664-238-612Z" transform="translate(-41656.676 -39975)" fill="#fcd94a"/>
    <path id="Path_892" data-name="Path 892" d="M35776,45122s-583-1270-1103-1089-5,1541,102,1592c106,51,1251-331,2424,292s1856,2188,2018,2278c162,89,554-402,169-919-385-518-784-363-784-363s404-852-14-1195c-419-344-1147,48-1147,48s-134-1512-639-1582-1026,939-1026,939Z" transform="translate(-41656.676 -39975)" fill="#e03d38"/>
    <path id="Path_893" data-name="Path 893" d="M32257,54666s708,243,708,328c0,84-694,218-861,69S32033,54610,32257,54666Z" transform="translate(-41656.676 -39975)" fill="#f9a24a"/>
    <path id="Path_894" data-name="Path 894" d="M38140,55061s476-203,547-186c71,16,197,242,116,301C38617,55311,37928,55160,38140,55061Z" transform="translate(-41656.676 -39975)" fill="#f9a24a"/>
  </g>
</svg>
