<svg xmlns="http://www.w3.org/2000/svg" width="10847.023" height="10276.514" viewBox="0 0 10847.023 10276.514">
  <g id="_5" data-name="5" transform="translate(11237.551 9091.678)">
    <path id="Path_700" data-name="Path 700" d="M8041,33102s560-959,168-1516-2006-500-2355,241c0,0-481-791-1320-506s-832,1468-427,1962c0,0-690-178-1165,427s166,1181,166,1181-446,175-521,608c-75,432,521,1162,521,1162l4961-2592-29-965Z" transform="translate(-12103.676 -40305)" fill="#ce3c39"/>
    <path id="Path_701" data-name="Path 701" d="M5854,31826s-481-791-1320-506-832,1468-427,1962c0,0-690-178-1165,427s166,1181,166,1181-446,175-521,608c-75,432,521,1162,521,1162l161-84c-32-54-73-113-125-176-667-820,21-1374,110-1450s-487-776-42-1156,979-291,1055-363-523-1498,354-1713c878-215,1144,447,1249,388s477-603,1509-523c485,38,784,300,966,568,11-200-21-399-137-564-392-557-2006-500-2355,241Z" transform="translate(-12103.676 -40305)" fill="#b53437"/>
    <path id="Path_702" data-name="Path 702" d="M1830,38100s110-947-296-1057S568,37507,1830,38100Z" transform="translate(-12103.676 -40305)" fill="#ce3c39"/>
    <path id="Path_703" data-name="Path 703" d="M1838,38011c-81-138-510-385-633-581-56-90-75-187-80-266-162,191-96,560,705,937,0,0,4-34,8-89Z" transform="translate(-12103.676 -40305)" fill="#bb3438"/>
    <path id="Path_704" data-name="Path 704" d="M1830,38100s689-658,364-1004S1259,37186,1830,38100Z" transform="translate(-12103.676 -40305)" fill="#ce3c39"/>
    <path id="Path_705" data-name="Path 705" d="M1972,37776s363-426,190-616C1989,36969,1667,37258,1972,37776Z" transform="translate(-12103.676 -40305)" fill="#e03d38"/>
    <path id="Path_706" data-name="Path 706" d="M1898,36981c-272,38-486,450-68,1119,0,0,55-53,125-135C1668,37472,1731,37127,1898,36981Z" transform="translate(-12103.676 -40305)" fill="#bb3438"/>
    <path id="Path_707" data-name="Path 707" d="M1830,38100s-506-589-795-504C746,37680,723,38531,1830,38100Z" transform="translate(-12103.676 -40305)" fill="#ce3c39"/>
    <path id="Path_708" data-name="Path 708" d="M1008,37607c-263,127-249,911,822,494,0,0-17-19-45-50C1010,38296,882,37835,1008,37607Z" transform="translate(-12103.676 -40305)" fill="#bb3438"/>
    <path id="Path_709" data-name="Path 709" d="M1613,37980s-295-343-489-316C929,37691,1068,38216,1613,37980Z" transform="translate(-12103.676 -40305)" fill="#e03d38"/>
    <path id="Path_710" data-name="Path 710" d="M1574,37636s-45-256-27-407-241-107-318-50,68,324,206,421c137,97,147,87,139,37Z" transform="translate(-12103.676 -40305)" fill="#e03d38"/>
    <path id="Path_711" data-name="Path 711" d="M10589,36945s285-11,794-258c509-248,480,1208-445,1678,0,0-488-735-350-1420Z" transform="translate(-12103.676 -40305)" fill="#fcce29"/>
    <path id="Path_712" data-name="Path 712" d="M11627,37542c-443-131-584-456-626-695-267,93-412,98-412,98-138,685,350,1420,350,1420,355-180,577-505,689-823Z" transform="translate(-12103.676 -40305)" fill="#fac12d"/>
    <path id="Path_713" data-name="Path 713" d="M1770,38024s799-233,1179-1773c380-1541,1758-3072,2700-3304,942-231,1829,793,1829,793s397-287,562-639c0,0,1664,332,2579,3150s612,4295-2920,5083-6160-1582-5929-3309Z" transform="translate(-12103.676 -40305)" fill="#fcce29"/>
    <path id="Path_714" data-name="Path 714" d="M3989,36970s890-2452,1860-3063,1344,377,1531,434,843-585,1139-540c297,44,1457,1008,1927,3075s-203,3095-1506,3392c-1302,297-3234,97-3552-177-319-275,577-1276,636-1849,59-574-676-866-804-1192s-545-326-735-246S3786,37480,3989,36970Z" transform="translate(-12103.676 -40305)" fill="#fcd94a"/>
    <path id="Path_715" data-name="Path 715" d="M5835,40685c-2557-378-3654-2124-3276-2549,379-425,862-982,1406-2400,431-1124,1693-2288,2467-2729-243-88-511-126-783-59-942,231-2320,1763-2700,3304s-1179,1773-1179,1773c-231,1727,2397,4097,5929,3309,1201-268,2029-616,2563-1069-779,251-2531,701-4427,421Z" transform="translate(-12103.676 -40305)" fill="#fac12d"/>
    <path id="Path_716" data-name="Path 716" d="M3574,37818s321,197,640,89c319-109,380-451,458-416s5,298,85,345,630-52,737,189c0,0-76-467-529-463,0,0-192-508-359-449S4431,37760,3574,37818Z" transform="translate(-12103.676 -40305)" fill="#fac12d"/>
    <path id="Path_717" data-name="Path 717" d="M4884,36399v-330s-387-347-1100-333v374s644,44,1100,288Z" transform="translate(-12103.676 -40305)" fill="#363435"/>
    <path id="Path_718" data-name="Path 718" d="M8520,36599v-330s387-347,1100-333v374s-644,44-1100,288Z" transform="translate(-12103.676 -40305)" fill="#363435"/>
    <path id="Path_719" data-name="Path 719" d="M10446,36876c0,153-140,277-313,277s-313-124-313-277,140-277,313-277S10446,36723,10446,36876Z" transform="translate(-12103.676 -40305)" fill="#f59a9c"/>
    <path id="Path_720" data-name="Path 720" d="M3734,36876c0,153-140,277-313,277s-313-124-313-277,140-277,313-277S3734,36723,3734,36876Z" transform="translate(-12103.676 -40305)" fill="#f59a9c"/>
    <path id="Path_721" data-name="Path 721" d="M3574,37818s490,32,710-156,216-419,333-468c117-50,253,231,267,454,0,0,439-131,535,404,96,536-922,1412-922,1412s795-344,1043-1107-427-897-546-844c0,0-119-543-409-490s58,536-1010,795Z" transform="translate(-12103.676 -40305)" fill="#f79633"/>
    <path id="Path_722" data-name="Path 722" d="M7215,37016c0,208-217,377-485,377s-485-169-485-377,217-377,485-377S7215,36808,7215,37016Z" transform="translate(-12103.676 -40305)" fill="#692c2c"/>
    <path id="Path_723" data-name="Path 723" d="M6895,37238c-268,0-485-169-485-377,0-55,15-107,42-154-125,68-207,181-207,309,0,208,217,377,485,377,198,0,368-92,443-224-79,43-175,68-278,68Z" transform="translate(-12103.676 -40305)" fill="#582d2d"/>
    <path id="Path_724" data-name="Path 724" d="M6250,36858s216,526,541,485,380-578,380-578l170,120s50,823-529,897-750-886-750-886Z" transform="translate(-12103.676 -40305)" fill="#f68e34"/>
    <path id="Path_725" data-name="Path 725" d="M6871,37662c-461,59-663-538-726-783l-83,17s171,960,750,886c242-31,374-193,446-371-79,127-200,228-386,252Z" transform="translate(-12103.676 -40305)" fill="#f37835"/>
    <path id="Path_726" data-name="Path 726" d="M6319,37109s157,347,468,307c311-39,371-379,446-354,76,25-13,484-378,515s-550-370-576-477,14-37,39,8Z" transform="translate(-12103.676 -40305)" fill="#f9a24a"/>
    <path id="Path_727" data-name="Path 727" d="M7380,36918c0,133-303-29-678-29-374,0-678,162-678,29s303-667,678-667C7076,36251,7380,36785,7380,36918Z" transform="translate(-12103.676 -40305)" fill="#f68e34"/>
    <path id="Path_728" data-name="Path 728" d="M7380,36918c0-15-4-35-11-58-423-217-1060,14-1070-145-7-106,86-273,168-395-258,148-443,495-443,599,0,133,303-29,678-29,374,0,678,162,678,29Z" transform="translate(-12103.676 -40305)" fill="#f37835"/>
    <path id="Path_729" data-name="Path 729" d="M6457,36590s75-244,257-248,449,256,457,314c7,58-161-3-385,16-224,20-358,21-328-82Z" transform="translate(-12103.676 -40305)" fill="#f9a24a"/>
    <path id="Path_730" data-name="Path 730" d="M6598,36941s322-13,375,36c53,50,68,165-117,199S6426,36946,6598,36941Z" transform="translate(-12103.676 -40305)" fill="#7a2d2e"/>
    <path id="Path_731" data-name="Path 731" d="M3421,38345s662-245,1076-320,670,73,664,278-670,909-1075,1105S2849,38536,3421,38345Z" transform="translate(-12103.676 -40305)" fill="#fcd94a"/>
    <path id="Path_732" data-name="Path 732" d="M3503,40144s380-277,707-13,172,1085-165,1177C3707,41400,2985,40540,3503,40144Z" transform="translate(-12103.676 -40305)" fill="#f68e34"/>
    <path id="Path_733" data-name="Path 733" d="M3793,40273s172-134,385,70c214,204,54,765-131,806-165,36-641-628-254-875Z" transform="translate(-12103.676 -40305)" fill="#f9a24a"/>
    <path id="Path_734" data-name="Path 734" d="M3683,40189s190-139,418-126c-297-138-598,81-598,81-500,382,153,1195,504,1171C3661,41141,3262,40512,3683,40189Z" transform="translate(-12103.676 -40305)" fill="#f37835"/>
    <path id="Path_735" data-name="Path 735" d="M9855,39604s450-136,672,220c222,357-194,1082-543,1057-349-24-749-1074-129-1278Z" transform="translate(-12103.676 -40305)" fill="#f68e34"/>
    <path id="Path_736" data-name="Path 736" d="M10086,39821s206-70,341,192c135,263-200,740-389,718-168-20-399-804,47-910Z" transform="translate(-12103.676 -40305)" fill="#f9a24a"/>
    <path id="Path_737" data-name="Path 737" d="M10010,39705s225-68,436,18c-235-228-592-120-592-120-597,197-248,1179,91,1271-269-278-440-1004,64-1170Z" transform="translate(-12103.676 -40305)" fill="#f37835"/>
    <path id="Path_738" data-name="Path 738" d="M11186,36886s204-132,326-95c122,38,119,352,40,456S11021,37032,11186,36886Z" transform="translate(-12103.676 -40305)" fill="#fcd94a"/>
    <path id="Path_739" data-name="Path 739" d="M1595,35860s539-149,539-538c0,0,125,538,539,538,0,0-539,176-539,538C2134,36398,2035,35860,1595,35860Z" transform="translate(-12103.676 -40305)" fill="#f79233"/>
    <path id="Path_740" data-name="Path 740" d="M6228,32120s523-368,1147-328c625,40,709,562,678,775s-454,748-509,788-961-735-1825-585c-864,151-2137,1725-2281,2029-144,303-330-704-31-939s824-246,974-385c151-139-330-1141,217-1510,547-370,1074,310,1187,323S6124,32183,6228,32120Z" transform="translate(-12103.676 -40305)" fill="#e03d38"/>
    <path id="Path_741" data-name="Path 741" d="M3225,35197c-4,11-209,627-241,663s-92-237,11-467C3097,35163,3292,35009,3225,35197Z" transform="translate(-12103.676 -40305)" fill="#e03d38"/>
  </g>
</svg>
