<svg xmlns="http://www.w3.org/2000/svg" width="12047" height="10384.18" viewBox="0 0 12047 10384.18">
  <g id="_6" data-name="6" transform="translate(-412.324 9198.18)">
    <path id="Path_657" data-name="Path 657" d="M22966,36235s318-532,712-615,438,322-91,582c-529,259-621,34-621,34Z" transform="translate(-12103.676 -40305)" fill="#ce3c39"/>
    <path id="Path_658" data-name="Path 658" d="M22966,36235s92,226,621-34c60-30,112-61,158-93-135-11-303-36-340-104-37-69-7-186,25-273C23159,35913,22966,36235,22966,36235Z" transform="translate(-12103.676 -40305)" fill="#bb3438"/>
    <path id="Path_659" data-name="Path 659" d="M22498,36606s985-520,848-1030C23264,35267,22412,35809,22498,36606Z" transform="translate(-12103.676 -40305)" fill="#ce3c39"/>
    <path id="Path_660" data-name="Path 660" d="M22498,36606s8-4,23-13c1-696,697-1160,836-955-2-21-5-41-11-62C23264,35267,22412,35809,22498,36606Z" transform="translate(-12103.676 -40305)" fill="#bb3438"/>
    <path id="Path_661" data-name="Path 661" d="M22498,36606s348-460,891-485C23932,36095,24088,36763,22498,36606Z" transform="translate(-12103.676 -40305)" fill="#ce3c39"/>
    <path id="Path_662" data-name="Path 662" d="M23394,36203c190-9,332,67,369,163,33-130-132-257-374-245-543,26-891,485-891,485,25,2,48,4,72,6C22695,36480,22991,36222,23394,36203Z" transform="translate(-12103.676 -40305)" fill="#bb3438"/>
    <path id="Path_663" data-name="Path 663" d="M22765,36515s353-272,662-244C24078,36331,23247,36669,22765,36515Z" transform="translate(-12103.676 -40305)" fill="#e03d38"/>
    <path id="Path_664" data-name="Path 664" d="M22630,36377s594-363,629-644S22715,35874,22630,36377Z" transform="translate(-12103.676 -40305)" fill="#e03d38"/>
    <path id="Path_665" data-name="Path 665" d="M23498,35918s3-162,142-227c139-66,291-33,271,103-41,280-399,296-413,125Z" transform="translate(-12103.676 -40305)" fill="#e03d38"/>
    <path id="Path_666" data-name="Path 666" d="M17332,32437s-35-969,1123-1279c1158-311,1836,870,1908,1530,0,0,1707-77,1377,1635,0,0,1017,811,42,1359s-4593-2392-4593-2392Z" transform="translate(-12103.676 -40305)" fill="#ce3c39"/>
    <path id="Path_667" data-name="Path 667" d="M22175,35272c-702-419-1945-2694-2911-2893-1047-216-1547,473-1572-164-12-316,202-663,425-935-813,387-786,1156-786,1156l-143,853s3619,2940,4593,2392c225-127,343-268,393-409Z" transform="translate(-12103.676 -40305)" fill="#bb3438"/>
    <path id="Path_668" data-name="Path 668" d="M17332,32437s96,503,557,407,580-447,1502-147,2160,2268,2500,2913c339,644,469,880,803,802,0,0,156,1253-2579,1839-2735,585-6063-774-6063-774S13385,33930,17332,32437Z" transform="translate(-12103.676 -40305)" fill="#fcce29"/>
    <path id="Path_669" data-name="Path 669" d="M17122,33102s369,327,1171,65,1713,182,2092,851c379,668,1281,2227,1561,2394s-617,611-879,597-1923-840-2128-846c-205-5-725,485-902,576-177,92-1018-400-1142-376s-231,225-334,244-831-701-975-630c-143,71-463,251-535-143-119-651,1552-3050,2071-2733Z" transform="translate(-12103.676 -40305)" fill="#fcd94a"/>
    <path id="Path_670" data-name="Path 670" d="M17332,32437c-3947,1493-3280,5040-3280,5040s2157,880,4424,919c355-621,733-1499,337-1307-570,275-1967-348-1967-348l-692,732-1102-894s-758,348-352-1283c422-1694,2632-2858,2632-2858Z" transform="translate(-12103.676 -40305)" fill="#fac12d"/>
    <path id="Path_671" data-name="Path 671" d="M13423,36740l1022,528,1113-814,989,582,299-295,1072,737,1022-1065,2144,1065,1828-849s1008,4862-4482,4862-5007-4750-5007-4750Z" transform="translate(-12103.676 -40305)" fill="#fbc39e"/>
    <path id="Path_672" data-name="Path 672" d="M19009,40794c-3852,0-4763-2338-4964-3733l-622-321s-483,4750,5007,4750c2227,0,3385-800,3974-1752C21724,40354,20661,40794,19009,40794Z" transform="translate(-12103.676 -40305)" fill="#fab58d"/>
    <path id="Path_673" data-name="Path 673" d="M17506,38711l-610,604,385-179s398,421,391,405c-7-17-265-478-265-478l318-305-318-478,1533-1868-1022,1065-697,817,285,418Z" transform="translate(-12103.676 -40305)" fill="#f8a77e"/>
    <path id="Path_674" data-name="Path 674" d="M14741,37663s405-441,559-435,770,474,908,494,507-545,630-536,423,260,502,349-561,606-512,729,438,123,325,335-630,874-640,942,606-292,689-203c84,89,648,507,706,502,57-5-287-729-213-778s448-281,463-374c15-94-423-478-354-571,69-94,1068-1314,1250-1270s1659,1177,1881,1130,1472-810,1644-707,251,3338-3289,3220-4844-2343-4549-2826Z" transform="translate(-12103.676 -40305)" fill="#fccbb0"/>
    <path id="Path_675" data-name="Path 675" d="M21526,37087c0,400-377,724-841,724-465,0-841-324-841-724s377-724,841-724S21526,36687,21526,37087Z" transform="translate(-12103.676 -40305)" fill="#fcce29"/>
    <path id="Path_676" data-name="Path 676" d="M20917,37564c-464,0-841-324-841-724,0-115,32-224,88-321-195,133-321,338-321,568,0,400,377,724,841,724,330,0,615-164,753-403C21294,37505,21113,37564,20917,37564Z" transform="translate(-12103.676 -40305)" fill="#fac12d"/>
    <path id="Path_677" data-name="Path 677" d="M21228,37306c-197,157-534,119-753-85s-236-496-39-653,534-119,753,85S21425,37149,21228,37306Z" transform="translate(-12103.676 -40305)" fill="#fcd94a"/>
    <path id="Path_678" data-name="Path 678" d="M16383,37131c-5,15,27-624-434-882-460-258-1165,107-989,585,175,477,914,677,1194,638C16369,37442,16383,37131,16383,37131Z" transform="translate(-12103.676 -40305)" fill="#fcce29"/>
    <path id="Path_679" data-name="Path 679" d="M16260,36951c-3,10,18-425-287-600-305-176-771,73-655,398s605,461,790,434c142-20,151-232,151-232Z" transform="translate(-12103.676 -40305)" fill="#fcd94a"/>
    <path id="Path_680" data-name="Path 680" d="M15172,36711c-72-196,5-372,152-495-271,102-465,340-364,617,175,477,914,677,1194,638,80-11,132-61,166-119-307,14-981-188-1147-642Z" transform="translate(-12103.676 -40305)" fill="#fac12d"/>
    <path id="Path_681" data-name="Path 681" d="M17980,35481s32-119,139-136,386,9,421,77-14,333-241,361-332-242-319-303Z" transform="translate(-12103.676 -40305)" fill="#692c2c"/>
    <path id="Path_682" data-name="Path 682" d="M18353,35688c-126,0-228-78-228-175,0-80,70-147,166-168-67-6-132-6-172,1-107,17-139,136-139,136-13,61,92,331,319,303,102-13,168-74,207-143C18466,35670,18412,35688,18353,35688Z" transform="translate(-12103.676 -40305)" fill="#582d2d"/>
    <path id="Path_683" data-name="Path 683" d="M18004,35382s66,398,279,376,262-376,262-376l90-4s31,571-344,573-401-582-401-582l115,13Z" transform="translate(-12103.676 -40305)" fill="#f68e34"/>
    <path id="Path_684" data-name="Path 684" d="M18334,35903c-305,2-379-385-396-529l-48-5s26,585,401,582c111-1,185-51,237-122C18480,35873,18418,35902,18334,35903Z" transform="translate(-12103.676 -40305)" fill="#f37835"/>
    <path id="Path_685" data-name="Path 685" d="M18640,35361c0,72-168,131-376,131-207,0-375-59-375-131s168-262,375-262S18640,35289,18640,35361Z" transform="translate(-12103.676 -40305)" fill="#f68e34"/>
    <path id="Path_686" data-name="Path 686" d="M18529,35294c0,38-110,69-245,69-136,0-245-31-245-69s110-138,245-138C18420,35156,18529,35256,18529,35294Z" transform="translate(-12103.676 -40305)" fill="#f9a24a"/>
    <path id="Path_687" data-name="Path 687" d="M18336,35430c-207,0-375-59-375-131,0-27,24-71,65-116-83,60-136,137-136,177,0,72,168,131,375,131,191,0,347-50,371-114-68,32-177,53-299,53Z" transform="translate(-12103.676 -40305)" fill="#f37835"/>
    <path id="Path_688" data-name="Path 688" d="M18024,35561s66,263,288,221,232-289,262-291,16,313-182,368c-198,56-324-122-368-220-44-97-22-137,0-79Z" transform="translate(-12103.676 -40305)" fill="#f9a24a"/>
    <path id="Path_689" data-name="Path 689" d="M18208,35529s128,9,210-18,13,138-95,135C18215,35644,18150,35528,18208,35529Z" transform="translate(-12103.676 -40305)" fill="#7a2d2e"/>
    <path id="Path_690" data-name="Path 690" d="M20533,35492a93.891,93.891,0,0,1-94-94c0-43-28-150-94-204-34-28-73-37-121-29-160,29-168,227-168,235-2,52-47,92-96,91-52-1-93-44-92-95,2-124,73-371,322-416,103-19,198,5,275,69,117,98,161,266,161,348a93.891,93.891,0,0,1-94,94Z" transform="translate(-12103.676 -40305)" fill="#282828"/>
    <path id="Path_691" data-name="Path 691" d="M21438,35834c0,124-136,225-303,225s-303-101-303-225,136-225,303-225S21438,35710,21438,35834Z" transform="translate(-12103.676 -40305)" fill="#f59a9c"/>
    <path id="Path_692" data-name="Path 692" d="M16615,35492a93.891,93.891,0,0,1-94-94c0-43-28-150-94-204-34-28-73-37-121-29-160,29-168,227-168,235-2,52-47,92-96,91-52-1-93-44-92-95,2-124,73-371,322-416,103-19,198,5,275,69,117,98,161,266,161,348a93.891,93.891,0,0,1-94,94Z" transform="translate(-12103.676 -40305)" fill="#282828"/>
    <path id="Path_693" data-name="Path 693" d="M15658,35834c0,124-136,225-303,225s-303-101-303-225,136-225,303-225S15658,35710,15658,35834Z" transform="translate(-12103.676 -40305)" fill="#f59a9c"/>
    <path id="Path_694" data-name="Path 694" d="M20308,32769s-682-1424-1390-1443c-708-18-1007,677-978,814,29,138,627-24,1109,0s1547,965,1967,1591,806,1218,946,1216c140-3-386-640-386-640s119-698-148-1094-1121-444-1121-444Z" transform="translate(-12103.676 -40305)" fill="#e03d38"/>
    <path id="Path_695" data-name="Path 695" d="M14385,32005l514-265,413,830-336,192Z" transform="translate(-12103.676 -40305)" fill="#f79233"/>
    <path id="Path_696" data-name="Path 696" d="M12699,32622l456-323,563,696-240,159Z" transform="translate(-12103.676 -40305)" fill="#f79233"/>
    <path id="Path_697" data-name="Path 697" d="M12516,34167l411-285,791,329-348,449Z" transform="translate(-12103.676 -40305)" fill="#f79233"/>
    <path id="Path_698" data-name="Path 698" d="M21921,32359l685-813,404,233-606,807Z" transform="translate(-12103.676 -40305)" fill="#f79233"/>
    <path id="Path_699" data-name="Path 699" d="M23425,33790l1009-110,129,487-1040,155Z" transform="translate(-12103.676 -40305)" fill="#f79233"/>
  </g>
</svg>
