<svg xmlns="http://www.w3.org/2000/svg" width="15079.238" height="10689.355" viewBox="0 0 15079.238 10689.355">
  <g id="_8" data-name="8" transform="translate(587.703 9174.641)">
    <path id="Path_525" data-name="Path 525" d="M51194,35161s576,629,1523,764c947,136-75,969-1191,897s-332-1662-332-1662Z" transform="translate(-41656.676 -39975)" fill="#fcce29"/>
    <path id="Path_526" data-name="Path 526" d="M52979,36378c-237,86-779,246-888-44-73-196-182-481-269-709-402-218-628-465-628-465s-784,1590,332,1662c621,40,1213-200,1453-445Z" transform="translate(-41656.676 -39975)" fill="#fac12d"/>
    <path id="Path_527" data-name="Path 527" d="M52186,35903s361,107,630,149,86,310-186,331-394-52-427-105C52171,36224,51987,35848,52186,35903Z" transform="translate(-41656.676 -39975)" fill="#fcd94a"/>
    <path id="Path_528" data-name="Path 528" d="M48130,40551s386,698,591,759c205,60,410-926,410-926l-1000,168Z" transform="translate(-41656.676 -39975)" fill="#f68e34"/>
    <path id="Path_529" data-name="Path 529" d="M48721,41309c64,19,127-64,185-187-348-24-551-413-628-596l-148,25s386,698,591,759Z" transform="translate(-41656.676 -39975)" fill="#f37835"/>
    <path id="Path_530" data-name="Path 530" d="M48615,40790s256-90,306-77c51,13-10,277-84,301-73,24-333-189-223-225Z" transform="translate(-41656.676 -39975)" fill="#f9a24a"/>
    <path id="Path_531" data-name="Path 531" d="M47004,40676s321,730,519,809c199,79,493-885,493-885Z" transform="translate(-41656.676 -39975)" fill="#f68e34"/>
    <path id="Path_532" data-name="Path 532" d="M47522,41485c62,25,133-52,202-169-344-56-511-462-571-651l-150,11S47324,41407,47522,41485Z" transform="translate(-41656.676 -39975)" fill="#f37835"/>
    <path id="Path_533" data-name="Path 533" d="M47465,40958s263-66,312-48-36,275-111,292C47591,41220,47352,40984,47465,40958Z" transform="translate(-41656.676 -39975)" fill="#f9a24a"/>
    <path id="Path_534" data-name="Path 534" d="M47911,32324s106-848-453-952c-558-104-874,378-874,378s-415-1203-1478-901-1095,1257-964,1667c0,0-1830,177-929,1830,0,0-698,54-802,676s901,1147,901,1147l3059-1400s699-762,855-820c155-59,549-698,544-757s141-869,141-869Z" transform="translate(-41656.676 -39975)" fill="#ce3c39"/>
    <path id="Path_535" data-name="Path 535" d="M43080,36027l34-26s-563-429-578-911,677-744,677-744-698,54-802,676C42340,35448,42790,35829,43080,36027Z" transform="translate(-41656.676 -39975)" fill="#bb3438"/>
    <path id="Path_536" data-name="Path 536" d="M43213,34522s-437,163-536,473c-99,311,217,625,251,598C42962,35565,43388,34457,43213,34522Z" transform="translate(-41656.676 -39975)" fill="#e03d38"/>
    <path id="Path_537" data-name="Path 537" d="M47458,31372c-558-104-874,378-874,378s-415-1203-1478-901-1095,1257-964,1667c0,0-1830,177-929,1830,0,0-243-703,92-1168s1082-272,1071-664,44-1267,786-1455,1318,924,1358,890,438-460,819-445,572,819,572,819,106-848-453-952Z" transform="translate(-41656.676 -39975)" fill="#bb3438"/>
    <path id="Path_538" data-name="Path 538" d="M46622,32081s428-379,719-335,395,472,324,626c-72,154-409,415-489,439-80,25-902-517-1796-237-1396,437-1773,1303-1906,1561-132,258-236-725,148-994s909-354,1049-538-25-1057,560-1268,1143,928,1389,747Z" transform="translate(-41656.676 -39975)" fill="#e03d38"/>
    <path id="Path_539" data-name="Path 539" d="M42106,38129s35-271-81-654-483-660-671-449C41019,37404,41747,38099,42106,38129Z" transform="translate(-41656.676 -39975)" fill="#ce3c39"/>
    <path id="Path_540" data-name="Path 540" d="M41744,37741c-79-31-247-107-368-163,173,281,517,533,730,551,0,0,35-271-81-654a997.01,997.01,0,0,0-73-174C41818,37489,41877,37792,41744,37741Z" transform="translate(-41656.676 -39975)" fill="#bb3438"/>
    <path id="Path_541" data-name="Path 541" d="M42106,38129s-779-738-992-354S41479,38624,42106,38129Z" transform="translate(-41656.676 -39975)" fill="#ce3c39"/>
    <path id="Path_542" data-name="Path 542" d="M41069,37940c-3,331,498,613,1037,188,0,0-33-31-86-77-445,308-852,144-951-112Z" transform="translate(-41656.676 -39975)" fill="#bb3438"/>
    <path id="Path_543" data-name="Path 543" d="M41841,38030s-422-439-628-235C41101,37905,41420,38236,41841,38030Z" transform="translate(-41656.676 -39975)" fill="#e03d38"/>
    <path id="Path_544" data-name="Path 544" d="M42106,38129s-207-212-210-535,527-517,620-250C42609,37612,42275,38018,42106,38129Z" transform="translate(-41656.676 -39975)" fill="#ce3c39"/>
    <path id="Path_545" data-name="Path 545" d="M42467,37269c35,255-165,605-330,650-73,20-136-5-186-43,62,159,154,253,154,253,169-111,504-517,410-785-11-31-28-56-49-75Z" transform="translate(-41656.676 -39975)" fill="#bb3438"/>
    <path id="Path_546" data-name="Path 546" d="M42062,37820s-124-139-93-284,277-272,372-216c94,56-149,597-278,500Z" transform="translate(-41656.676 -39975)" fill="#e03d38"/>
    <path id="Path_547" data-name="Path 547" d="M41699,37601s-230-17-324-292c-58-170,124-285,213-252s213,202,226,269S41794,37604,41699,37601Z" transform="translate(-41656.676 -39975)" fill="#e03d38"/>
    <path id="Path_548" data-name="Path 548" d="M47164,33071s-1228-847-2554,0-1726,3000-1793,4094c-67,1093-787,893-787,893s1187,2700,4694,2827,5394-2123,5227-4095-2234-4212-4040-4466C47911,32324,47691,32711,47164,33071Z" transform="translate(-41656.676 -39975)" fill="#fcce29"/>
    <path id="Path_549" data-name="Path 549" d="M44080,36206s215-1770,1144-2289,1739-127,2125-190,930-728,1291-684,2563,1334,2810,3563-1797,2912-3443,3083-3519-443-3696-760,848-411,785-899c-63-487-1149-1176-1016-1825Z" transform="translate(-41656.676 -39975)" fill="#fcd94a"/>
    <path id="Path_550" data-name="Path 550" d="M46181,36580c0,206-214,374-478,374s-479-167-479-374c0-206,215-373,479-373S46181,36374,46181,36580Z" transform="translate(-41656.676 -39975)" fill="#f59a9c"/>
    <path id="Path_551" data-name="Path 551" d="M51845,35307c14,206-189,387-452,405-264,18-489-135-503-341s189-387,452-405c264-18,489,135,503,340Z" transform="translate(-41656.676 -39975)" fill="#f59a9c"/>
    <path id="Path_552" data-name="Path 552" d="M46473,36098c-45,0-85-33-92-79-3-21-78-508,272-617,285-87,491,241,567,449,18,49-7,102-56,120s-103-7-120-56c-2-4-154-391-336-334-195,60-143,404-142,407a93.741,93.741,0,0,1-78,107,75.687,75.687,0,0,1-15,1Z" transform="translate(-41656.676 -39975)" fill="#282828"/>
    <path id="Path_553" data-name="Path 553" d="M49954,35212c-45,0-85-33-93-79-3-21-78-508,272-617,285-88,491,241,567,449,18,49-7,102-56,120s-103-7-120-56c-2-4-154-391-336-334-195,60-143,403-142,407a93.741,93.741,0,0,1-78,107,75.687,75.687,0,0,1-15,1Z" transform="translate(-41656.676 -39975)" fill="#282828"/>
    <path id="Path_554" data-name="Path 554" d="M49326,35669s-375,167-401,430c0,0,231,260,543,213,0,0-435,420-855,85-412-329,102-1185,714-727Z" transform="translate(-41656.676 -39975)" fill="#f68e34"/>
    <path id="Path_555" data-name="Path 555" d="M49359,36316c-164,95-435,184-700-28-148-118-177-305-124-474-106,192-103,438,77,583,421,335,855-85,855-85a506.5,506.5,0,0,1-109,5Z" transform="translate(-41656.676 -39975)" fill="#f37835"/>
    <path id="Path_556" data-name="Path 556" d="M49135,35676s-284,198-306,449c0,0,118,151,294,186,0,0-341,105-504-206-154-293,332-587,516-430Z" transform="translate(-41656.676 -39975)" fill="#f9a24a"/>
    <path id="Path_557" data-name="Path 557" d="M43886,37278s36,369-235,638,198,446,198,446-528-52-621-176c-92-123,247-403,247-403S43774,37546,43886,37278Z" transform="translate(-41656.676 -39975)" fill="#fac12d"/>
    <path id="Path_558" data-name="Path 558" d="M43886,37278s-201,305-672,654,462,781,1396,288c0,0-988,240-1230-35C43180,37958,43777,37862,43886,37278Z" transform="translate(-41656.676 -39975)" fill="#f79633"/>
    <path id="Path_559" data-name="Path 559" d="M43764,37986s182-321,234-507,490,534,442,636c-48,103-608,121-675,65-68-56-57-89,0-195Z" transform="translate(-41656.676 -39975)" fill="#fcd94a"/>
    <path id="Path_560" data-name="Path 560" d="M51009,39335c-678,315-1691,631-3178,794-3616,395-4905-1537-5052-1917-146-379,425-580,557-1129s461-2599,1494-3382c1032-783,2335-630,2335-630s-1228-847-2554,0-1726,3000-1793,4094c-67,1093-787,893-787,893s1187,2700,4694,2827c1959,71,3413-600,4285-1550Z" transform="translate(-41656.676 -39975)" fill="#fac12d"/>
    <path id="Path_561" data-name="Path 561" d="M53674,35052c-12,0-24,0-36-1-150-11-236-88-305-149-64-57-109-98-188-89-177,20-314,216-316,218-14,21-44,27-65,12s-27-44-12-65c7-10,162-234,383-259,120-13,192,51,261,113,65,58,132,117,250,126,94,7,166-16,216-68,61-63,88-170,75-300-2-26,16-49,42-52a45.711,45.711,0,0,1,51,42c16,158-19,291-100,375-62,64-150,98-255,98Z" transform="translate(-41656.676 -39975)" fill="#282828"/>
    <path id="Path_562" data-name="Path 562" d="M51852,31146l-599-243v1017c-49-26-107-41-169-41-175,0-318,118-318,265,0,146,142,265,318,265,163,0,296-103,314-235l2-15,2-739,451-273Z" transform="translate(-41656.676 -39975)" fill="#313131"/>
    <path id="Path_563" data-name="Path 563" d="M51387,32216c-128,166-397,110-483-13-65-92-46-196-14-268-75,48-124,123-124,208,0,146,142,265,318,265C51229,32408,51349,32327,51387,32216Z" transform="translate(-41656.676 -39975)" fill="#282828"/>
    <path id="Path_564" data-name="Path 564" d="M51253,30902v1017l86-982Z" transform="translate(-41656.676 -39975)" fill="#282828"/>
    <path id="Path_565" data-name="Path 565" d="M51684,31159l-307-109-88,995s-85-95-229-81c-145,14-177,159-50,233s353,35,353-99,4-748,4-748l318-191Z" transform="translate(-41656.676 -39975)" fill="#3d3d3d"/>
    <path id="Path_566" data-name="Path 566" d="M54414,35530l408,1051c-61-7-127,0-192,25-181,70-281,250-222,401s253,216,435,146c168-65,265-225,230-369l-4-16-468-1211-187-28Z" transform="translate(-41656.676 -39975)" fill="#313131"/>
    <path id="Path_567" data-name="Path 567" d="M54506,36987c-80-107-39-232-3-301-95,87-136,211-94,321,59,151,253,216,435,146,97-38,169-107,206-186C54845,37152,54599,37111,54506,36987Z" transform="translate(-41656.676 -39975)" fill="#282828"/>
    <path id="Path_568" data-name="Path 568" d="M54414,35530l408,1051-341-1041Z" transform="translate(-41656.676 -39975)" fill="#282828"/>
    <path id="Path_569" data-name="Path 569" d="M54562,35635l347,1037s-139-37-251,18c-113,55-148,197-34,279,113,81,454-19,394-199-63-161-412-1101-412-1101Z" transform="translate(-41656.676 -39975)" fill="#3d3d3d"/>
    <path id="Path_570" data-name="Path 570" d="M55780,33239l-7,2-1180,304,131,418,161,514a342.3,342.3,0,0,0-167,10c-161,50-257,199-215,333s206,202,367,151c149-47,241-179,220-305l-1-15-227-726,907-242,172,549c-52-10-110-7-167,11-161,50-257,199-215,333s206,202,366,151c149-47,242-179,220-305l-4-21-235-756h2l-127-407Z" transform="translate(-41656.676 -39975)" fill="#313131"/>
    <path id="Path_571" data-name="Path 571" d="M55085,34760c-133,136-330,168-442,80-88-69-97-176-93-238-50,64-71,143-47,218,42,134,206,202,367,151,112-35,192-119,216-212Z" transform="translate(-41656.676 -39975)" fill="#282828"/>
    <path id="Path_572" data-name="Path 572" d="M54593,33545l131,417,161,514-210-952Z" transform="translate(-41656.676 -39975)" fill="#282828"/>
    <path id="Path_573" data-name="Path 573" d="M56125,34558c-173,139-396,106-466,19-58-72-56-168-48-226-54,66-77,148-53,225,42,134,206,202,366,151,95-30,167-94,201-170Z" transform="translate(-41656.676 -39975)" fill="#282828"/>
    <path id="Path_574" data-name="Path 574" d="M55940,34233c-28-5-58-7-87-4Z" transform="translate(-41656.676 -39975)" fill="#282828"/>
    <path id="Path_575" data-name="Path 575" d="M55940,34233l-141-608-938,301,907-243Z" transform="translate(-41656.676 -39975)" fill="#282828"/>
    <path id="Path_576" data-name="Path 576" d="M54917,34519l-168-940,1010-268,328,1056s21,157-119,204c-141,47-267-46-278-120s35-151,127-166,181,28,181,28l-181-750-986,344,197,679s40,142-87,202c-126,60-274-5-293-92-18-87,79-173,155-185s113,6,113,6Z" transform="translate(-41656.676 -39975)" fill="#3d3d3d"/>
  </g>
</svg>
