<svg xmlns="http://www.w3.org/2000/svg" width="238.656" height="216.18" viewBox="0 0 238.656 216.18">
  <g id="_8" data-name="8" transform="translate(587.703 9221.641)">
    <path id="Path_525" data-name="Path 525" d="M50930.66,35160.016a43.623,43.623,0,0,0,24.105,12.094c14.988,2.148-1.187,15.336-18.852,14.2s-5.254-26.3-5.254-26.3Z" transform="translate(-51358.117 -44265.641)" fill="#fcce29"/>
    <path id="Path_526" data-name="Path 526" d="M50958.91,35179.277c-3.75,1.359-12.328,3.895-14.051-.7-1.156-3.105-2.883-7.613-4.258-11.223a41.082,41.082,0,0,1-9.941-7.359s-12.406,25.164,5.254,26.3c9.828.633,19.2-3.164,23-7.043Z" transform="translate(-51358.117 -44265.641)" fill="#fac12d"/>
    <path id="Path_527" data-name="Path 527" d="M52096.258,35897.609a94.512,94.512,0,0,0,9.973,2.359c4.254.664,1.359,4.906-2.945,5.238s-6.238-.824-6.758-1.66C52096.02,35902.691,52093.109,35896.742,52096.258,35897.609Z" transform="translate(-52508.016 -44991.492)" fill="#fcd94a"/>
    <path id="Path_528" data-name="Path 528" d="M48130,40386.645s6.109,11.047,9.352,12.012c3.246.949,6.492-14.656,6.492-14.656l-15.828,2.66Z" transform="translate(-48605.949 -49406.961)" fill="#f68e34"/>
    <path id="Path_529" data-name="Path 529" d="M48139.352,40538.391c1.016.3,2.012-1.012,2.93-2.961-5.508-.379-8.723-6.535-9.941-9.43l-2.34.395s6.109,11.047,9.352,12.012Z" transform="translate(-48605.949 -49546.715)" fill="#f37835"/>
    <path id="Path_530" data-name="Path 530" d="M48587.68,40712.953s4.055-1.422,4.844-1.219c.809.207-.156,4.387-1.328,4.766-1.156.379-5.273-2.992-3.531-3.562Z" transform="translate(-49055.949 -49729.488)" fill="#f9a24a"/>
    <path id="Path_531" data-name="Path 531" d="M47004,40601.2s5.078,11.551,8.215,12.8,7.8-14.008,7.8-14.008Z" transform="translate(-47497.77 -49619.543)" fill="#f68e34"/>
    <path id="Path_532" data-name="Path 532" d="M47011.215,40677.977c.98.4,2.105-.82,3.2-2.676-5.445-.887-8.086-7.309-9.035-10.3l-2.375.172S47008.078,40676.742,47011.215,40677.977Z" transform="translate(-47496.785 -49683.516)" fill="#f37835"/>
    <path id="Path_533" data-name="Path 533" d="M47435.633,40907.7s4.164-1.047,4.938-.762-.57,4.352-1.758,4.621C47437.625,40911.848,47433.844,40908.113,47435.633,40907.7Z" transform="translate(-47922.105 -49921.578)" fill="#f9a24a"/>
    <path id="Path_534" data-name="Path 534" d="M42490.617,30824.473s1.68-13.42-7.168-15.066c-8.832-1.646-13.832,5.982-13.832,5.982s-6.57-19.039-23.395-14.26-17.328,19.895-15.258,26.383c0,0-28.961,2.8-14.7,28.965,0,0-11.047.854-12.691,10.7s14.258,18.154,14.258,18.154l48.414-22.158s11.066-12.061,13.535-12.979c2.453-.934,8.688-11.047,8.609-11.98s2.23-13.754,2.23-13.754Z" transform="translate(-42970.031 -39975)" fill="#ce3c39"/>
    <path id="Path_535" data-name="Path 535" d="M42414.219,34372.605l.539-.41s-8.91-6.789-9.148-14.418,10.715-11.777,10.715-11.777-11.047.855-12.691,10.7C42402.508,34363.441,42409.629,34369.473,42414.219,34372.605Z" transform="translate(-42970.098 -43464.523)" fill="#bb3438"/>
    <path id="Path_536" data-name="Path 536" d="M42666.664,34519.293s-6.914,2.578-8.48,7.484c-1.566,4.922,3.434,9.895,3.973,9.465S42669.434,34518.266,42666.664,34519.293Z" transform="translate(-43220.438 -43635.031)" fill="#e03d38"/>
    <path id="Path_537" data-name="Path 537" d="M43034.73,30809.406c-8.832-1.646-13.832,5.982-13.832,5.982s-6.566-19.039-23.391-14.26-17.332,19.895-15.258,26.383c0,0-28.965,2.8-14.7,28.965,0,0-3.848-11.127,1.457-18.486s17.121-4.3,16.949-10.51.7-20.053,12.441-23.027,20.859,14.623,21.492,14.086,6.934-7.281,12.961-7.043,9.055,12.961,9.055,12.961,1.676-13.42-7.172-15.066Z" transform="translate(-43521.316 -39975)" fill="#bb3438"/>
    <path id="Path_538" data-name="Path 538" d="M43405.867,31321.037s6.773-6,11.375-5.3,6.254,7.471,5.129,9.908-6.473,6.566-7.738,6.947c-1.266.4-14.273-8.184-28.426-3.752-22.094,6.918-28.059,20.623-30.164,24.707-2.09,4.082-3.738-11.475,2.34-15.732s14.387-5.6,16.6-8.516-.395-16.729,8.867-20.068,18.09,14.688,21.98,11.824Z" transform="translate(-43905.68 -40475.41)" fill="#e03d38"/>
    <path id="Path_539" data-name="Path 539" d="M41281.332,36971.734a27.18,27.18,0,0,0-1.281-10.352c-1.836-6.062-7.645-10.445-10.621-7.109C41264.129,36960.258,41275.652,36971.258,41281.332,36971.734Z" transform="translate(-41852.621 -46030.383)" fill="#ce3c39"/>
    <path id="Path_540" data-name="Path 540" d="M41381.824,37307.961c-1.25-.492-3.91-1.7-5.824-2.582,2.738,4.449,8.184,8.438,11.555,8.723a27.184,27.184,0,0,0-1.281-10.352,15.62,15.62,0,0,0-1.156-2.754C41383,37303.969,41383.93,37308.766,41381.824,37307.961Z" transform="translate(-41958.844 -46372.754)" fill="#bb3438"/>
    <path id="Path_541" data-name="Path 541" d="M41085.383,37671.621s-12.328-11.68-15.7-5.6S41075.461,37679.453,41085.383,37671.621Z" transform="translate(-41656.676 -46730.273)" fill="#ce3c39"/>
    <path id="Path_542" data-name="Path 542" d="M41068.992,37939.016c-.051,5.238,7.879,9.7,16.41,2.977,0,0-.523-.492-1.359-1.219-7.043,4.875-13.484,2.277-15.051-1.773Z" transform="translate(-41656.695 -47000.66)" fill="#bb3438"/>
    <path id="Path_543" data-name="Path 543" d="M41200.688,37745.508s-6.68-6.945-9.937-3.719C41188.977,37743.531,41194.023,37748.77,41200.688,37745.508Z" transform="translate(-41776.172 -46805.727)" fill="#e03d38"/>
    <path id="Path_544" data-name="Path 544" d="M41899.313,37232.758a13.263,13.263,0,0,1-3.324-8.469c-.047-5.109,8.34-8.184,9.813-3.957C41907.273,37224.574,41901.988,37231,41899.313,37232.758Z" transform="translate(-42470.602 -46291.406)" fill="#ce3c39"/>
    <path id="Path_545" data-name="Path 545" d="M41959.164,37269c.555,4.035-2.609,9.574-5.219,10.289a3.312,3.312,0,0,1-2.945-.684,12.812,12.812,0,0,0,2.438,4c2.672-1.758,7.977-8.18,6.488-12.422a2.884,2.884,0,0,0-.773-1.187Z" transform="translate(-42524.742 -46341.262)" fill="#bb3438"/>
    <path id="Path_546" data-name="Path 546" d="M41965.574,37314.613s-1.965-2.2-1.473-4.492,4.383-4.3,5.887-3.418c1.488.883-2.359,9.445-4.4,7.91Z" transform="translate(-42537.563 -46378.156)" fill="#e03d38"/>
    <path id="Path_547" data-name="Path 547" d="M41369.113,37060.043a6.35,6.35,0,0,1-5.129-4.621c-.918-2.691,1.961-4.512,3.371-3.988s3.371,3.2,3.578,4.258S41370.617,37060.09,41369.113,37060.043Z" transform="translate(-41946.844 -46127.051)" fill="#e03d38"/>
    <path id="Path_548" data-name="Path 548" d="M42111.254,32335.822s-19.434-13.406-40.422,0-27.316,47.48-28.379,64.795c-1.059,17.3-12.453,14.133-12.453,14.133s18.785,42.732,74.289,44.742,85.371-33.6,82.727-64.811-35.355-66.662-63.937-70.682C42123.078,32324,42119.594,32330.125,42111.254,32335.822Z" transform="translate(-42602.492 -41474.527)" fill="#fcce29"/>
    <path id="Path_549" data-name="Path 549" d="M44068.9,33091s3.4-28.016,18.105-36.23,27.523-2.008,33.633-3,14.719-11.523,20.434-10.828,40.563,21.113,44.473,56.391-28.441,46.09-54.492,48.8-55.7-7.012-58.5-12.027,13.422-6.508,12.426-14.23c-1-7.707-18.187-18.613-16.082-28.883Z" transform="translate(-44608.949 -42180.09)" fill="#fcd94a"/>
    <path id="Path_550" data-name="Path 550" d="M45239.148,36212.9c0,3.262-3.391,5.922-7.566,5.922s-7.582-2.645-7.582-5.922c0-3.258,3.4-5.9,7.582-5.9S45239.148,36209.645,45239.148,36212.9Z" transform="translate(-45745.941 -45296.07)" fill="#f59a9c"/>
    <path id="Path_551" data-name="Path 551" d="M50904.441,34969.984c.223,3.258-2.992,6.121-7.152,6.406-4.18.285-7.742-2.133-7.961-5.395s2.988-6.125,7.152-6.41c4.18-.285,7.738,2.137,7.961,5.379Z" transform="translate(-51321.594 -44073.297)" fill="#f59a9c"/>
    <path id="Path_552" data-name="Path 552" d="M46373.852,35398.875a1.479,1.479,0,0,1-1.457-1.25c-.047-.332-1.234-8.039,4.3-9.766,4.512-1.375,7.773,3.816,8.977,7.109a1.482,1.482,0,1,1-2.785,1.012c-.035-.062-2.437-6.191-5.32-5.285-3.086.949-2.262,6.391-2.246,6.441a1.482,1.482,0,0,1-1.234,1.691.979.979,0,0,1-.238.016Z" transform="translate(-46876.027 -44489.672)" fill="#282828"/>
    <path id="Path_553" data-name="Path 553" d="M49853.871,34512.609a1.5,1.5,0,0,1-1.473-1.25c-.047-.332-1.234-8.039,4.3-9.766,4.512-1.391,7.77,3.816,8.973,7.105a1.482,1.482,0,1,1-2.785,1.016c-.031-.066-2.437-6.191-5.316-5.289-3.086.949-2.266,6.379-2.25,6.441a1.483,1.483,0,0,1-1.234,1.7,1.575,1.575,0,0,1-.234.016Z" transform="translate(-50300.953 -43617.43)" fill="#282828"/>
    <path id="Path_554" data-name="Path 554" d="M48478.32,35540.191s-5.937,2.645-6.348,6.809c0,0,3.656,4.113,8.594,3.367,0,0-6.883,6.648-13.531,1.348-6.52-5.207,1.613-18.754,11.3-11.5Z" transform="translate(-48935.34 -44637.777)" fill="#f68e34"/>
    <path id="Path_555" data-name="Path 555" d="M48478.293,35821.945c-2.6,1.5-6.887,2.914-11.078-.445a6.722,6.722,0,0,1-1.965-7.5c-1.676,3.039-1.629,6.934,1.219,9.227,6.664,5.3,13.531-1.344,13.531-1.344a8.2,8.2,0,0,1-1.723.078Z" transform="translate(-48934.789 -44909.289)" fill="#f37835"/>
    <path id="Path_556" data-name="Path 556" d="M48597.938,35631.953s-4.492,3.133-4.84,7.109a8.86,8.86,0,0,0,4.652,2.941s-5.4,1.664-7.977-3.262c-2.437-4.637,5.254-9.289,8.164-6.8Z" transform="translate(-49057.984 -44729.43)" fill="#f9a24a"/>
    <path id="Path_557" data-name="Path 557" d="M43222.832,37278a13.548,13.548,0,0,1-3.719,10.1c-4.289,4.258,3.133,7.059,3.133,7.059s-8.355-.824-9.828-2.785c-1.457-1.949,3.91-6.379,3.91-6.379S43221.059,37282.242,43222.832,37278Z" transform="translate(-43765.949 -46350.121)" fill="#fac12d"/>
    <path id="Path_558" data-name="Path 558" d="M43100.5,37278s-3.184,4.828-10.637,10.352,7.313,12.359,22.094,4.555c0,0-15.637,3.8-19.465-.551C43089.324,37288.762,43098.773,37287.242,43100.5,37278Z" transform="translate(-43643.617 -46350.121)" fill="#f79633"/>
    <path id="Path_559" data-name="Path 559" d="M43718.762,37456.961a50.332,50.332,0,0,0,3.7-8.023c.824-2.945,7.754,8.449,7,10.066s-9.621,1.914-10.684,1.027-.9-1.406,0-3.086Z" transform="translate(-44263.813 -46517.875)" fill="#fcd94a"/>
    <path id="Path_560" data-name="Path 560" d="M42173.094,32799.652c-10.734,4.984-26.766,9.984-50.3,12.566-57.23,6.25-77.629-24.328-79.957-30.34-2.309-6,6.727-9.18,8.816-17.869s7.3-41.135,23.645-53.525,36.957-9.973,36.957-9.973-19.437-13.4-40.422,0-27.316,47.48-28.379,64.8c-1.059,17.3-12.453,14.133-12.453,14.133s18.785,42.73,74.289,44.742c31,1.125,54.016-9.5,67.82-24.531Z" transform="translate(-42603.477 -41839.215)" fill="#fac12d"/>
    <path id="Path_561" data-name="Path 561" d="M52758.395,34545.82c-.191,0-.383,0-.57-.016a7.719,7.719,0,0,1-4.828-2.359c-1.012-.9-1.727-1.551-2.977-1.406-2.8.316-4.969,3.418-5,3.449a.74.74,0,1,1-1.219-.84c.109-.156,2.563-3.7,6.063-4.1,1.9-.207,3.039.8,4.129,1.789a6.288,6.288,0,0,0,3.957,1.992,4.072,4.072,0,0,0,3.418-1.074,5.913,5.913,0,0,0,1.188-4.75.757.757,0,0,1,.664-.82.722.722,0,0,1,.547.156.736.736,0,0,1,.262.508,7.324,7.324,0,0,1-1.582,5.934,5.455,5.455,0,0,1-4.035,1.551Z" transform="translate(-53146.598 -43653.176)" fill="#282828"/>
    <path id="Path_562" data-name="Path 562" d="M50783.191,30906.846l-9.48-3.846v16.1a5.739,5.739,0,0,0-2.676-.648c-2.77,0-5.035,1.867-5.035,4.193s2.25,4.2,5.035,4.2c2.578,0,4.684-1.631,4.969-3.719l.031-.238.031-11.7,7.137-4.322Z" transform="translate(-51200.23 -40076.016)" fill="#313131"/>
    <path id="Path_563" data-name="Path 563" d="M50775.828,31939.449c-2.023,2.627-6.281,1.74-7.641-.207a4.225,4.225,0,0,1-.223-4.242,3.962,3.962,0,0,0-1.965,3.293c0,2.311,2.25,4.193,5.035,4.193A4.926,4.926,0,0,0,50775.828,31939.449Z" transform="translate(-51200.23 -41091.684)" fill="#282828"/>
    <path id="Path_564" data-name="Path 564" d="M51253,30902v16.1l1.363-15.543Z" transform="translate(-51679.523 -40075.031)" fill="#282828"/>
    <path id="Path_565" data-name="Path 565" d="M50942.625,31051.725l-4.859-1.725-1.395,15.746a4.491,4.491,0,0,0-3.621-1.281c-2.3.223-2.8,2.516-.793,3.688s5.586.555,5.586-1.566.063-11.84.063-11.84l5.035-3.021Z" transform="translate(-51362.324 -40220.688)" fill="#3d3d3d"/>
    <path id="Path_566" data-name="Path 566" d="M54391.406,35529.016l6.457,16.633a6.414,6.414,0,0,0-3.039.4c-2.863,1.105-4.445,3.957-3.512,6.344s4,3.422,6.883,2.313c2.66-1.027,4.2-3.562,3.641-5.84l-.062-.254-7.406-19.164-2.961-.445Z" transform="translate(-54767.898 -44628.801)" fill="#313131"/>
    <path id="Path_567" data-name="Path 567" d="M54394.352,36690.766a4.447,4.447,0,0,1-.047-4.766,4.681,4.681,0,0,0-1.488,5.078c.934,2.391,4,3.422,6.883,2.313a5.96,5.96,0,0,0,3.262-2.945C54399.715,36693.375,54395.82,36692.727,54394.352,36690.766Z" transform="translate(-54769.387 -45767.488)" fill="#282828"/>
    <path id="Path_568" data-name="Path 568" d="M54414,35530l6.461,16.633-5.4-16.477Z" transform="translate(-54790.492 -44629.785)" fill="#282828"/>
    <path id="Path_569" data-name="Path 569" d="M54554.066,35635l5.492,16.414a6.456,6.456,0,0,0-3.973.285c-1.789.871-2.344,3.117-.539,4.414,1.789,1.281,7.188-.3,6.234-3.148-1-2.551-6.52-17.426-6.52-17.426Z" transform="translate(-54928.215 -44733.125)" fill="#3d3d3d"/>
    <path id="Path_570" data-name="Path 570" d="M54513.508,33238.016l-.109.031-18.68,4.813,2.074,6.617,2.551,8.133a5.373,5.373,0,0,0-2.645.16c-2.547.789-4.066,3.148-3.4,5.27s3.258,3.2,5.809,2.391c2.359-.746,3.813-2.836,3.48-4.828l-.016-.238-3.594-11.488,14.355-3.832,2.723,8.688a5.443,5.443,0,0,0-2.641.176c-2.551.793-4.07,3.148-3.4,5.27s3.258,3.2,5.789,2.391c2.359-.742,3.832-2.832,3.484-4.828l-.066-.332-3.719-11.965h.031l-2.008-6.441Z" transform="translate(-54868.383 -42374.059)" fill="#313131"/>
    <path id="Path_571" data-name="Path 571" d="M54502.441,34604.5c-2.105,2.152-5.223,2.66-7,1.266a4.333,4.333,0,0,1-1.469-3.766,3.731,3.731,0,0,0-.746,3.449c.664,2.121,3.262,3.2,5.809,2.391a4.979,4.979,0,0,0,3.418-3.355Z" transform="translate(-54868.316 -43716.473)" fill="#282828"/>
    <path id="Path_572" data-name="Path 572" d="M54593,33524.332l2.074,6.6,2.547,8.137L54594.3,33524Z" transform="translate(-54966.66 -42655.535)" fill="#282828"/>
    <path id="Path_573" data-name="Path 573" d="M55557.648,34354.277c-2.738,2.2-6.266,1.676-7.375.3a4.73,4.73,0,0,1-.762-3.578,3.815,3.815,0,0,0-.836,3.563c.664,2.117,3.258,3.2,5.793,2.391a5.132,5.132,0,0,0,3.18-2.691Z" transform="translate(-55907.059 -43469.445)" fill="#282828"/>
    <path id="Path_574" data-name="Path 574" d="M55854.379,34227.676a4.922,4.922,0,0,0-1.379-.062Z" transform="translate(-56206.719 -43347.988)" fill="#282828"/>
    <path id="Path_575" data-name="Path 575" d="M54878.074,33634.621l-2.23-9.621-14.844,4.766,14.352-3.848Z" transform="translate(-55230.418 -42754.934)" fill="#282828"/>
    <path id="Path_576" data-name="Path 576" d="M54650.109,33330.117l-2.66-14.875,15.984-4.242,5.191,16.711a3.014,3.014,0,0,1-1.883,3.23c-2.234.742-4.227-.73-4.4-1.9a2.3,2.3,0,0,1,2.008-2.629,5.4,5.4,0,0,1,2.863.445l-2.863-11.871-15.605,5.441,3.117,10.75a2.739,2.739,0,0,1-1.375,3.2c-2,.949-4.336-.078-4.637-1.457-.285-1.375,1.25-2.738,2.453-2.926a3.241,3.241,0,0,1,1.789.094Z" transform="translate(-55018.641 -42445.906)" fill="#3d3d3d"/>
    <text id="HAPPY_FARM" data-name="HAPPY FARM" transform="translate(-584.703 -9188.641)" fill="#ffd464" font-size="35" font-family="SFProDisplay-Bold, SF Pro Display" font-weight="700"><tspan x="0" y="0">HAPPY FARM</tspan></text>
  </g>
</svg>
