<?xml version="1.0" encoding="UTF-8"?>
<svg width="100px" height="49px" viewBox="0 0 100 49" version="1.1" xmlns="http://www.w3.org/2000/svg" xmlns:xlink="http://www.w3.org/1999/xlink">
    <!-- Generator: Sketch 49.3 (51167) - http://www.bohemiancoding.com/sketch -->
    <title>Group 2</title>
    <desc>Created with Sketch.</desc>
    <defs></defs>
    <g id="Page-1" stroke="none" stroke-width="1" fill="none" fill-rule="evenodd">
        <g id="Custom-Preset-2" transform="translate(-452.000000, -474.000000)">
            <g id="Group-4" transform="translate(244.000000, 340.000000)">
                <g id="Group-2" transform="translate(208.000000, 130.000000)">
                    <g id="Group">
                        <path d="M3.22,44.4 L10.24,4.8 C10.3,4.44 10.54,4.2 10.9,4.2 L24.82,4.2 C32.56,4.2 36.04,8.4 36.04,15.48 C36.04,20.52 34.24,32.16 31.78,37.08 C28.84,43.14 24.34,45 17.68,45 L3.76,45 C3.4,45 3.16,44.76 3.22,44.4 Z M10.9,38.64 C10.84,38.88 10.96,39 11.2,39 L17.2,39 C21.52,39 24.4,37.44 26.26,33.72 C27.7,30.72 29.56,20.46 29.56,16.8 C29.56,12.06 26.92,10.2 22.24,10.2 L16.24,10.2 C16,10.2 15.94,10.32 15.88,10.56 L10.9,38.64 Z" id="D" fill="#212121"></path>
                        <path d="M52.406,45 L49.088,45 C48.878,45 48.71,44.832 48.752,44.58 L49.004,43.026 L48.962,43.026 C47.828,44.454 45.854,45.462 43.04,45.462 C39.89,45.462 37.496,43.488 37.496,40.212 C37.496,35.466 40.814,32.946 46.484,32.946 L50.432,32.946 C50.6,32.946 50.726,32.862 50.768,32.694 L50.936,31.56 C51.398,29.124 50.6,28.116 47.282,28.116 C45.098,28.116 43.586,28.788 42.536,29.544 C42.284,29.712 42.074,29.67 41.99,29.46 L40.982,26.814 C40.898,26.604 40.982,26.394 41.15,26.268 C42.872,25.092 45.56,24.294 48.374,24.294 C54.128,24.294 56.102,26.352 55.22,31.308 L52.868,44.58 C52.826,44.832 52.658,45 52.406,45 Z M44.804,41.85 C47.576,41.85 49.382,40.632 49.76,38.28 L50.054,36.558 C50.096,36.39 50.012,36.306 49.844,36.306 L46.61,36.306 C43.166,36.306 41.864,37.482 41.864,39.624 C41.864,41.01 42.83,41.85 44.804,41.85 Z M61.352,52.56 L57.698,52.56 C57.446,52.56 57.278,52.392 57.32,52.14 L62.066,25.176 C62.108,24.924 62.276,24.756 62.528,24.756 L66.182,24.756 C66.434,24.756 66.56,24.924 66.518,25.176 L66.224,26.772 L66.266,26.772 C67.484,25.344 69.29,24.294 71.936,24.294 C75.716,24.294 77.858,26.898 77.858,30.972 C77.858,33.66 77.102,38.238 75.8,40.842 C74.162,44.118 71.684,45.462 68.324,45.462 C65.552,45.462 64.04,44.286 63.41,42.942 L63.368,42.942 L61.772,52.14 C61.73,52.392 61.604,52.56 61.352,52.56 Z M67.694,41.514 C69.584,41.514 71.012,40.548 71.894,38.742 C72.65,37.23 73.322,33.66 73.322,31.896 C73.322,29.544 72.398,28.242 70.088,28.242 C68.198,28.242 66.77,29.166 65.888,31.014 C65.174,32.442 64.46,36.054 64.46,37.86 C64.46,40.17 65.384,41.514 67.694,41.514 Z M83.276,52.56 L79.622,52.56 C79.37,52.56 79.202,52.392 79.244,52.14 L83.99,25.176 C84.032,24.924 84.2,24.756 84.452,24.756 L88.106,24.756 C88.358,24.756 88.484,24.924 88.442,25.176 L88.148,26.772 L88.19,26.772 C89.408,25.344 91.214,24.294 93.86,24.294 C97.64,24.294 99.782,26.898 99.782,30.972 C99.782,33.66 99.026,38.238 97.724,40.842 C96.086,44.118 93.608,45.462 90.248,45.462 C87.476,45.462 85.964,44.286 85.334,42.942 L85.292,42.942 L83.696,52.14 C83.654,52.392 83.528,52.56 83.276,52.56 Z M89.618,41.514 C91.508,41.514 92.936,40.548 93.818,38.742 C94.574,37.23 95.246,33.66 95.246,31.896 C95.246,29.544 94.322,28.242 92.012,28.242 C90.122,28.242 88.694,29.166 87.812,31.014 C87.098,32.442 86.384,36.054 86.384,37.86 C86.384,40.17 87.308,41.514 89.618,41.514 Z" id="app" fill="#212121"></path>
                        <polygon id="Rectangle" fill="#00D38C" points="1.62962963 17 22 17 20.3703704 23 0 23"></polygon>
                    </g>
                    <path d="M44.592,16.84 L46.464,6.28 C46.48,6.184 46.544,6.12 46.64,6.12 L50.624,6.12 C52.368,6.12 53.504,7.144 53.504,8.712 C53.504,10.488 52.4,11.848 50.832,12.344 L52.176,16.792 C52.224,16.904 52.16,17 52.064,17 L50.624,17 C50.496,17 50.448,16.952 50.416,16.84 L49.152,12.552 L47.232,12.552 C47.168,12.552 47.12,12.584 47.12,12.648 L46.368,16.84 C46.352,16.936 46.288,17 46.208,17 L44.736,17 C44.64,17 44.576,16.936 44.592,16.84 Z M47.504,10.952 L49.728,10.952 C50.832,10.936 51.696,10.216 51.696,8.968 C51.696,8.2 51.152,7.72 50.304,7.72 L48.08,7.72 C48.016,7.72 47.984,7.752 47.968,7.816 L47.424,10.856 C47.408,10.92 47.44,10.952 47.504,10.952 Z M57.408,17.176 C55.552,17.176 54.608,16.136 54.608,14.376 C54.608,13.464 54.816,12.04 55.232,11.192 C55.872,9.88 56.96,9.112 58.64,9.112 C60.176,9.112 61.344,10.056 61.344,11.816 C61.344,12.232 61.296,12.696 61.136,13.528 C61.12,13.624 61.04,13.688 60.944,13.688 L56.368,13.688 C56.304,13.688 56.272,13.72 56.256,13.784 C56.224,13.896 56.224,13.992 56.224,14.104 C56.224,15.256 56.752,15.672 57.712,15.672 C58.448,15.672 59.168,15.304 59.632,14.872 C59.728,14.792 59.808,14.808 59.872,14.872 L60.56,15.624 C60.624,15.704 60.624,15.8 60.544,15.88 C59.808,16.6 58.72,17.176 57.408,17.176 Z M56.592,12.408 L59.536,12.408 C59.6,12.408 59.648,12.376 59.664,12.312 C59.696,12.152 59.712,11.96 59.712,11.832 C59.712,10.952 59.248,10.552 58.416,10.552 C57.696,10.552 57.088,10.904 56.768,11.576 C56.672,11.784 56.576,12.056 56.528,12.312 C56.512,12.376 56.528,12.408 56.592,12.408 Z M66,17 L64.784,17 C64.688,17 64.624,16.936 64.608,16.84 L63.28,9.448 C63.28,9.352 63.312,9.288 63.424,9.288 L64.832,9.288 C64.912,9.288 64.976,9.336 64.992,9.448 L65.76,14.584 L65.792,14.584 L68.336,9.448 C68.384,9.336 68.448,9.288 68.544,9.288 L70.032,9.288 C70.128,9.288 70.192,9.352 70.144,9.448 L66.208,16.84 C66.16,16.936 66.112,17 66,17 Z M73.84,7.768 L72.432,7.768 C72.336,7.768 72.288,7.704 72.304,7.608 L72.56,6.28 C72.576,6.184 72.64,6.12 72.736,6.12 L74.128,6.12 C74.224,6.12 74.272,6.184 74.256,6.28 L74.016,7.608 C74,7.704 73.936,7.768 73.84,7.768 Z M72.224,17 L70.832,17 C70.736,17 70.672,16.936 70.688,16.84 L72,9.448 C72.016,9.352 72.08,9.288 72.176,9.288 L73.568,9.288 C73.664,9.288 73.712,9.352 73.696,9.448 L72.384,16.84 C72.368,16.936 72.32,17 72.224,17 Z M77.936,17.176 C76.08,17.176 75.136,16.136 75.136,14.376 C75.136,13.464 75.344,12.04 75.76,11.192 C76.4,9.88 77.488,9.112 79.168,9.112 C80.704,9.112 81.872,10.056 81.872,11.816 C81.872,12.232 81.824,12.696 81.664,13.528 C81.648,13.624 81.568,13.688 81.472,13.688 L76.896,13.688 C76.832,13.688 76.8,13.72 76.784,13.784 C76.752,13.896 76.752,13.992 76.752,14.104 C76.752,15.256 77.28,15.672 78.24,15.672 C78.976,15.672 79.696,15.304 80.16,14.872 C80.256,14.792 80.336,14.808 80.4,14.872 L81.088,15.624 C81.152,15.704 81.152,15.8 81.072,15.88 C80.336,16.6 79.248,17.176 77.936,17.176 Z M77.12,12.408 L80.064,12.408 C80.128,12.408 80.176,12.376 80.192,12.312 C80.224,12.152 80.24,11.96 80.24,11.832 C80.24,10.952 79.776,10.552 78.944,10.552 C78.224,10.552 77.616,10.904 77.296,11.576 C77.2,11.784 77.104,12.056 77.056,12.312 C77.04,12.376 77.056,12.408 77.12,12.408 Z M90.832,17 L89.616,17 C89.52,17 89.456,16.936 89.456,16.84 L88.928,11.704 L88.896,11.704 L86.496,16.84 C86.448,16.936 86.384,17 86.288,17 L85.056,17 C84.96,17 84.912,16.936 84.896,16.84 L83.872,9.448 C83.856,9.352 83.904,9.288 84.016,9.288 L85.328,9.288 C85.44,9.288 85.504,9.336 85.52,9.448 L86.032,14.696 L86.064,14.696 L88.464,9.448 C88.512,9.352 88.576,9.288 88.672,9.288 L89.808,9.288 C89.904,9.288 89.968,9.352 89.984,9.448 L90.544,14.696 L90.56,14.696 L92.88,9.448 C92.928,9.336 92.976,9.288 93.088,9.288 L94.592,9.288 C94.672,9.288 94.72,9.352 94.672,9.448 L91.04,16.84 C90.992,16.936 90.928,17 90.832,17 Z" id="Review" fill="#212121"></path>
                </g>
            </g>
        </g>
    </g>
</svg>
