
<svg xmlns="http://www.w3.org/2000/svg" xmlns:xlink="http://www.w3.org/1999/xlink" width="0" height="0" style="position:absolute">

		<symbol id="arrow" viewBox="0 0 11 17">
			<path d="M10.563 7.518L3.449.415A1.297 1.297 0 0 0 2.467 0c-.393 0-.72.138-.982.415l-.83.818c-.269.27-.404.596-.404.982 0 .378.135.71.404.993L5.958 8.5.655 13.803c-.27.27-.404.596-.404.982 0 .378.135.71.404.993l.83.818c.269.27.596.404.981.404.386 0 .713-.135.983-.404l7.114-7.103c.269-.284.404-.615.404-.993 0-.386-.135-.713-.404-.982z"></path>
		</symbol>

		<symbol id="clock" viewBox="0 0 16 16">
			<path fill-rule="evenodd" clip-rule="evenodd" d="M1.5 7.667a6.5 6.5 0 1 1 13 0 6.5 6.5 0 0 1-13 0zM8 .167a7.5 7.5 0 1 0 0 15 7.5 7.5 0 0 0 0-15zm.5 3.3a.5.5 0 0 0-1 0v4.2a.5.5 0 0 0 .276.447l2.8 1.4a.5.5 0 1 0 .448-.895L8.5 7.358V3.467z" fill="#5E91F4"></path>
		</symbol>

		<symbol id="close" viewBox="0 0 18 18">
			<path d="M16.468 15.496L2.56 1.589a.833.833 0 1 0-1.178 1.179l13.906 13.906a.833.833 0 0 0 1.179-1.178z" fill="#fff"></path><path d="M15.29 1.504L1.382 15.411a.833.833 0 1 0 1.178 1.178L16.468 2.683a.833.833 0 1 0-1.179-1.179z" fill="#fff"></path>
		</symbol>

		<symbol id="close2" viewBox="0 0 15 14">
			<path d="M.232 11.697l2.236 2.087a.82.82 0 0 0 .56.216.82.82 0 0 0 .558-.216L7.5 10.13l3.914 3.653a.82.82 0 0 0 .559.216.82.82 0 0 0 .559-.216l2.236-2.088a.704.704 0 0 0 0-1.043L10.855 7l3.913-3.653A.714.714 0 0 0 15 2.825a.714.714 0 0 0-.232-.522L12.532.216a.831.831 0 0 0-1.118 0L7.5 3.87 3.586.216a.831.831 0 0 0-1.118 0L.232 2.304A.714.714 0 0 0 0 2.825c0 .196.083.384.232.522L4.145 7 .232 10.653a.704.704 0 0 0 0 1.043z" fill="#B2B2C4"></path>
		</symbol>

		<symbol id="done" viewBox="0 0 17 12">
			<path d="M7.469 11.453a1.95 1.95 0 0 1-2.71 0L.561 7.357a1.837 1.837 0 0 1 0-2.643 1.95 1.95 0 0 1 2.71 0l2.501 2.44a.494.494 0 0 0 .685 0L13.229.547a1.95 1.95 0 0 1 2.71 0c.36.35.561.826.561 1.322 0 .495-.202.97-.561 1.321l-8.47 8.263z" fill="#6698FA"></path>
		</symbol>

		<symbol id="download" viewBox="0 0 23 26">
			<path fill-rule="evenodd" clip-rule="evenodd" d="M15.3 13.193a.885.885 0 0 1 1.25 1.25l-4.423 4.424-.001.001a.885.885 0 0 1-1.252-.001l-4.423-4.423a.885.885 0 0 1 1.251-1.251l2.913 2.913V1.434a.885.885 0 1 1 1.77 0v14.672l2.914-2.913zm.623-4.682h4.423A2.654 2.654 0 0 1 23 11.165v11.5a2.654 2.654 0 0 1-2.654 2.654H2.654A2.654 2.654 0 0 1 0 22.665v-11.5A2.654 2.654 0 0 1 2.654 8.51h4.423a.885.885 0 1 1 0 1.769H2.654a.885.885 0 0 0-.885.885v11.5c0 .488.396.884.885.884h17.692a.885.885 0 0 0 .885-.884v-11.5a.885.885 0 0 0-.885-.885h-4.423a.885.885 0 1 1 0-1.77z" fill="#fff"></path>
		</symbol>

		<symbol id="menu" viewBox="0 0 22 16">
			<path fill-rule="evenodd" clip-rule="evenodd" d="M20.759.635H1.092a.833.833 0 1 0 0 1.666h19.667a.833.833 0 0 0 0-1.666zm0 6.666H1.092a.833.833 0 1 0 0 1.667h19.667a.833.833 0 0 0 0-1.667zM1.092 13.968h19.667a.833.833 0 1 1 0 1.666H1.092a.833.833 0 1 1 0-1.666z" fill="#fff"></path>
		</symbol>

		<symbol id="pazl" viewBox="0 0 17 17">
			<path d="M12.688 8.095v.5h1.664c.79 0 1.44.647 1.44 1.524s-.65 1.524-1.44 1.524h-1.664v3.738c0 .635-.494 1.119-1.051 1.119H9.189v-.714c0-1.47-1.135-2.686-2.595-2.686C5.134 13.1 4 14.316 4 15.786v.714H1.552C.994 16.5.5 16.016.5 15.381v-2.576h.664c1.46 0 2.594-1.216 2.594-2.686S2.623 7.433 1.164 7.433H.5V4.857c0-.634.494-1.119 1.052-1.119h3.603V2.024c0-.878.65-1.524 1.44-1.524.79 0 1.439.646 1.439 1.524v1.714h3.603c.557 0 1.051.485 1.051 1.12v3.237z" fill="url(#a)" stroke="url(#b)"></path><defs><linearGradient id="a" x2="16.985" y2="16.277" gradientUnits="userSpaceOnUse"><stop stop-color="#E36FA6"></stop><stop offset="1" stop-color="#EC368C"></stop></linearGradient><linearGradient id="b" x2="16.985" y2="16.277" gradientUnits="userSpaceOnUse"><stop stop-color="#E36FA6"></stop><stop offset="1" stop-color="#EC368C"></stop></linearGradient></defs>
		</symbol>

		<symbol id="plus" viewBox="0 0 822 823">
			<path d="M805.653 315.641c-10.9-10.912-24.139-16.365-39.702-16.365H523.085V56.108c0-15.582-5.451-28.834-16.346-39.746C495.842 5.458 482.616 0 467.031 0h-112.08c-15.565 0-28.799 5.452-39.698 16.364-10.899 10.912-16.346 24.164-16.346 39.746v243.167H56.042c-15.563 0-28.799 5.455-39.698 16.367C5.445 326.556 0 339.796 0 355.388v112.23c0 15.597 5.443 28.839 16.342 39.741 10.899 10.915 24.135 16.365 39.698 16.365h242.864v243.169c0 15.582 5.448 28.849 16.347 39.757 10.898 10.902 24.133 16.35 39.697 16.35h112.089c15.575 0 28.803-5.448 39.704-16.35 10.903-10.913 16.346-24.175 16.346-39.757V523.724h242.864c15.574 0 28.808-5.45 39.702-16.365 10.9-10.902 16.347-24.144 16.347-39.741v-112.23c-.005-15.592-5.442-28.84-16.347-39.747z"></path>
		</symbol>

		<symbol id="reload" viewBox="0 0 21 20">
			<path fill-rule="evenodd" clip-rule="evenodd" d="M20.269 6.99V3.332a1.15 1.15 0 0 0-2.3 0v.373a10.178 10.178 0 0 0-2.057-1.897A10.075 10.075 0 0 0 10.134 0C8.056 0 6.058.625 4.356 1.808A10.12 10.12 0 0 0 .694 6.442a1.15 1.15 0 1 0 2.142.839 7.791 7.791 0 0 1 7.298-4.98 7.783 7.783 0 0 1 6.557 3.539h-1.23a1.15 1.15 0 0 0 0 2.3h3.658a1.15 1.15 0 0 0 1.15-1.15zm-2.836 5.73a1.15 1.15 0 1 1 2.142.837 10.119 10.119 0 0 1-3.662 4.635A10.075 10.075 0 0 1 10.133 20c-2.078 0-4.076-.625-5.778-1.808A10.18 10.18 0 0 1 2.3 16.295v.501a1.15 1.15 0 1 1-2.3 0v-3.658c0-.635.515-1.15 1.15-1.15h3.658a1.15 1.15 0 1 1 0 2.3H3.66a7.784 7.784 0 0 0 6.473 3.412 7.79 7.79 0 0 0 7.299-4.98z" fill="#29D9A9"></path>
		</symbol>

		<symbol id="start" viewBox="0 0 18 17">
			<path d="M17.584 6.423a.937.937 0 0 0-.806-.647l-5.09-.465L9.678.573a.937.937 0 0 0-1.725 0L5.942 5.31l-5.09.465a.94.94 0 0 0-.806.647.948.948 0 0 0 .273 1.003l3.847 3.394-1.134 5.027A.946.946 0 0 0 3.946 17a.93.93 0 0 0 .48-.134l4.389-2.64 4.387 2.64a.932.932 0 0 0 1.031-.046.946.946 0 0 0 .364-.973l-1.134-5.027 3.847-3.394a.948.948 0 0 0 .274-1.003z" fill="url(#a)"></path><defs><linearGradient id="a" x2="16.989" y2="17.618" gradientUnits="userSpaceOnUse"><stop stop-color="#E36FA6"></stop><stop offset="1" stop-color="#EC368C"></stop></linearGradient></defs>
		</symbol>

		<symbol id="telegram" viewBox="0 0 27 23">
			<path clip-rule="evenodd" d="M.85 11.134l5.99 2.173 2.32 7.247c.147.465.732.636 1.12.328l3.339-2.646c.35-.277.848-.29 1.214-.032l6.023 4.25c.415.292 1.002.072 1.106-.416l4.413-20.626c.113-.532-.425-.976-.946-.78L.842 9.85a.68.68 0 0 0 .007 1.284zm7.935 1.016l11.709-7.008c.21-.126.427.15.246.314l-9.663 8.73c-.34.306-.559.718-.62 1.164l-.33 2.37c-.043.317-.5.348-.591.042L8.27 13.44a1.132 1.132 0 0 1 .515-1.29z"></path>
		</symbol>

		<symbol id="tron" viewBox="0 0 25 27">
			<path d="M24.17 4.462c.308.247.36.732.128 1.135-3.801 6.6-7.606 13.146-11.408 19.74a1.31 1.31 0 0 1-.845.647c-.428.094-.865-.075-1.065-.524-3.332-7.472-6.625-15-9.956-22.473-.362-.808.209-1.846 1.044-2.029.077-.017.156-.027.236-.03C7.274.819 19.07.594 19.41.639a.197.197 0 0 1 .146.045c.925.742 3.486 2.873 4.612 3.779zM11.88 12.024c.043-.541.08-1.159.123-1.7a.426.426 0 0 0-.088-.285c-1.335-.925-2.747-1.832-4.082-2.755-1.631-1.088-3.267-2.25-4.899-3.338l-.074-.06c2.92 6.357 5.772 12.805 8.552 19.191.046-.227.057-.46.034-.691.046-.467.017-.992.063-1.46.043-.54.017-.992.06-1.533.045-.467.016-.993.062-1.459.046-.466.018-.992.064-1.459.046-.467.018-.993.063-1.459.043-.541.088-1.008.06-1.534.045-.466.017-.992.062-1.458zm.949 10.82c3.14-5.328 6.275-10.733 9.411-16.133-.071.015-7.895 3.328-8.66 3.723-.07.016-.07.016-.132.181-.05.391-.631 12.003-.62 12.228zM3.854 2.451C6.823 4.462 9.721 6.489 12.69 8.5c1.675-2.04 3.346-4.156 5.022-6.196-4.644.029-9.218.043-13.858.148zm10.618 5.962c2.584-1.1 5.239-2.213 7.82-3.388-.004-.074-2.844-2.342-3.064-2.445l-.067.09c-1.538 1.933-3.151 3.808-4.689 5.743z"></path>
		</symbol>

		<symbol id="trone" viewBox="0 0 68 71">
			<path fill-rule="evenodd" clip-rule="evenodd" d="M0 0c.407.07.766.134 1.12.197M0 0l.82 2.052zm26.855 67.146A268246.649 268246.649 0 0 0 3.749 9.373m23.106 57.773L28.395 71zM28.395 71l3.668-4.44zm3.668-4.44l10.079-12.2zM68 23.057L43.058 53.251l-.916 1.108M68 23.057a4.146 4.146 0 0 0-.114-.081zm-.114-.081c-.071-.05-.138-.096-.199-.152zm-.199-.152l-3.88-3.665zm-3.88-3.665l-9.639-9.11zm-9.639-9.11a.878.878 0 0 0-.44-.226zm-.44-.226c-.747-.132-1.493-.27-2.24-.409zm-6.112-1.12a1357.754 1357.754 0 0 1 3.723.684l.15.027M44.75 8.178a1372.577 1372.577 0 0 0 2.865.525m-2.865-.525l-2.547-.466zm-5.36-.982a1268.984 1268.984 0 0 1 2.813.516m-8.172-1.49l2.68.487 2.68.487M25.872 4.723c.913.167 1.825.334 2.736.503l2.711.498 2.712.497M23.376 4.266l2.314.424.183.033m-2.498-.457l-.154-.029zm-5.513-1.003l.085.015 2.595.472m-2.68-.487l-2.345-.43zm-5.36-.982c.809.147 1.619.296 2.429.445l.251.046.335.061m-3.014-.552c-.96-.177-1.92-.351-2.88-.526zM6.745 1.229l2.879.526m-2.879-.526C5.835 1.06 4.923.893 4.01.726zM1.358.24c.823.152 1.646.303 2.47.453" fill="#CDF"></path>
		</symbol>

		<symbol id="usd" viewBox="0 0 14 28">
			<path d="M8.11 12.256H5.392a2.811 2.811 0 0 1-2.809-2.808A2.811 2.811 0 0 1 5.392 6.64h5.436a1.269 1.269 0 0 0 0-2.538H8.02V1.294a1.269 1.269 0 0 0-2.538 0v2.808h-.09A5.352 5.352 0 0 0 .046 9.448a5.352 5.352 0 0 0 5.346 5.346H8.11a2.811 2.811 0 0 1 2.808 2.808A2.811 2.811 0 0 1 8.11 20.41H2.674a1.269 1.269 0 0 0 0 2.538h2.808v2.808a1.269 1.269 0 1 0 2.538 0v-2.808h.09a5.352 5.352 0 0 0 5.346-5.346 5.352 5.352 0 0 0-5.346-5.346z" fill="#fff"></path>
		</symbol>

		<symbol id="user" viewBox="0 0 22 24">
			<path clip-rule="evenodd" d="M17.013 6.125c0 3.05-2.649 5.543-5.89 5.543-3.24 0-5.889-2.493-5.889-5.543 0-3.05 2.649-5.543 5.89-5.543 3.24 0 5.889 2.493 5.889 5.543zm3.626 10.142c.232.314.437.653.592 1.016.077.145.051.315-.077.46a8.48 8.48 0 0 1-.695.968c-.36.46-.771.872-1.183 1.259-.36.339-.771.678-1.183.968-2.032 1.428-4.475 2.179-6.995 2.179-2.52 0-4.964-.75-6.996-2.179-.411-.314-.823-.63-1.183-.968a9.407 9.407 0 0 1-1.183-1.259 9.636 9.636 0 0 1-.694-.968c-.077-.145-.103-.315-.026-.46a5.86 5.86 0 0 1 .592-1.017c1.157-1.645 3.009-2.735 5.066-3 .257-.05.54.023.746.168a6.459 6.459 0 0 0 3.704 1.138 6.46 6.46 0 0 0 3.703-1.137c.206-.146.489-.194.746-.17a7.386 7.386 0 0 1 5.066 3.002z"></path>
		</symbol>

		<symbol id="user2" viewBox="0 0 23 23">
			<path d="M19.632 14.868a11.457 11.457 0 0 0-4.37-2.74 6.646 6.646 0 0 0 2.886-5.48A6.656 6.656 0 0 0 11.5 0a6.656 6.656 0 0 0-6.648 6.648 6.646 6.646 0 0 0 2.886 5.48 11.456 11.456 0 0 0-4.37 2.74A11.425 11.425 0 0 0 0 23h1.797c0-5.35 4.353-9.703 9.703-9.703S21.203 17.65 21.203 23H23c0-3.072-1.196-5.96-3.368-8.132zM11.5 11.5a4.857 4.857 0 0 1-4.852-4.852A4.857 4.857 0 0 1 11.5 1.797a4.857 4.857 0 0 1 4.852 4.851A4.857 4.857 0 0 1 11.5 11.5z"></path>
		</symbol>

		<symbol id="what" viewBox="0 0 658 1042">
			<path d="M317.433 1042c67.429 0 122.09-54.673 122.09-122.113 0-67.439-54.661-122.106-122.09-122.106-67.428 0-122.089 54.667-122.089 122.106 0 67.44 54.661 122.113 122.089 122.113zM317.433 0C142.399 0 0 142.422 0 317.484v30.528h244.179v-30.528c0-40.4 32.861-73.266 73.254-73.266 40.394 0 73.255 32.866 73.255 73.266 0 21.529-9.448 41.904-25.924 55.908l-169.42 144.063v219.272h244.179V630.372l83.38-70.895c71.156-60.475 111.963-148.675 111.963-241.993C634.866 142.422 492.468 0 317.433 0z"></path>
		</symbol>

</svg>
